<svg xmlns="http://www.w3.org/2000/svg" viewBox="0 0 173.99 104.99"><defs><style>.cls-1{isolation:isolate;}.cls-2{fill:#cf8b26;}.cls-3,.cls-5{fill:#bcbec0;}.cls-3{opacity:0.5;}.cls-17,.cls-3,.cls-5{mix-blend-mode:multiply;}.cls-4{fill:#aab123;}.cls-6{fill:#81281a;}.cls-7{fill:#bfb0a9;}.cls-8{fill:#d9c6ca;}.cls-9{fill:#ded6ed;}.cls-10{fill:#ffc525;}.cls-11{fill:#b59b84;}.cls-12{fill:#cfc7d4;}.cls-13{fill:#bdaf92;}.cls-14{fill:#e63c2f;}.cls-15,.cls-17,.cls-18{fill:#d1d3d4;}.cls-15{opacity:0.35;}.cls-15,.cls-18{mix-blend-mode:overlay;}.cls-16{fill:#e2231a;}.cls-18{opacity:0.25;}</style></defs><title>taco-loose</title><g class="cls-1"><g id="OBJECTS"><path class="cls-2" d="M162.44,47.22,2.76,92.55a1.58,1.58,0,0,1-2-1.44A86.81,86.81,0,0,1,163.39,44.94,1.58,1.58,0,0,1,162.44,47.22Z"/><path class="cls-3" d="M162.44,47.22,2.76,92.55a1.58,1.58,0,0,1-2-1.44A86.81,86.81,0,0,1,163.39,44.94,1.58,1.58,0,0,1,162.44,47.22Z"/><path class="cls-4" d="M36.16,44.26a1.78,1.78,0,0,0-1-.63C33,43,30.93,45,28.65,45.36c-.61-1.66.71-4-1-5a2.09,2.09,0,0,0-1.8-.13,11.64,11.64,0,0,0-6.42,5.93c-.56,1.2-.91,2.5-1.56,3.65-.17.3-.4.62-.83.47a.88.88,0,0,1-.54-.85c0-1.82-2.2-1.77-3.32-.86a4.61,4.61,0,0,0-1.68,3.81c.1,1.61,1,3,1.38,4.62a1.42,1.42,0,0,1-.11,1.13c-.36.5-1.11.41-1.72.38a3.93,3.93,0,0,0-4,2.45,3,3,0,0,0,.4,2.58c.81,1.19,2,1.05,3,1.16a2.38,2.38,0,0,1,1.73.78,1.2,1.2,0,0,1,0,1.31,4.73,4.73,0,0,0-.79,1.68c-.25,1.21-.4,2.95.43,4a1.18,1.18,0,0,0,.86.54,1.24,1.24,0,0,0,.85-.53A8,8,0,0,0,15.15,70,1.74,1.74,0,0,0,16,71.06a3.19,3.19,0,0,0,2.8-.17c2.5-1.17,4.08-3.7,5.16-6.23.23-.55.55-1.18,1.19-1.18a1,1,0,0,1,.83.48,2.62,2.62,0,0,1,.19,1.85,10,10,0,0,0,4.59-.58,2.74,2.74,0,0,0,1.35-1.06c.88-1.38-.41-2-.57-3.06-.24-1.45,1.63-2.17,2.67-3.21a3.49,3.49,0,0,0-.09-4.84c-.68-.63-1.72-1.19-1.6-2.11a2,2,0,0,1,.45-.89,34.11,34.11,0,0,1,2.2-2.64C35.95,46.53,36.87,45.25,36.16,44.26Z"/><path class="cls-4" d="M5.9,63.4a2,2,0,0,0-.87,1c-1,2.34.74,5,.7,7.54C4,72.35,2,70.7.65,71.94c-.82.76-.73,2.14-.44,3.24A12.92,12.92,0,0,0,5,82.31c1.15.83,2.42,1.44,3.51,2.35a1,1,0,0,1,.43.68c0,.74-1,.63-1.71.79-1.29.31-1.44,2.32-.79,3.54a4.74,4.74,0,0,0,3.65,2.5c1.68.16,3.32-.65,5-.76a1.4,1.4,0,0,1,1.15.31c.46.49.24,1.3.1,2a4.69,4.69,0,0,0,1.48,4.59,2.91,2.91,0,0,0,4.21-.85,9,9,0,0,0,.61-2.1,2.74,2.74,0,0,1,1.1-1.79,1.08,1.08,0,0,1,1.61.7l-.73-.42a4.85,4.85,0,0,0,6.28,1.26,1.32,1.32,0,0,0,.71-.87,1.43,1.43,0,0,0-.4-1,8.36,8.36,0,0,0-2.39-2.07,1.82,1.82,0,0,0,1.28-.74,3.84,3.84,0,0,0,.3-3.14c-.79-3-3.13-5.16-5.57-6.79-.48-.32-1-.72-1-1.33a1.24,1.24,0,0,1,1-1.15,3.16,3.16,0,0,1,1.57.23,12.11,12.11,0,0,0,.27-4.6c-.18-1.3-.88-2.83-2.1-2.8-.74,0-1.38.62-2.12.63-1.53,0-2-2.18-2.86-3.51a3.47,3.47,0,0,0-5-.71c-.76.65-1.52,1.71-2.45,1.42a2.05,2.05,0,0,1-.85-.65A37,37,0,0,1,9,65.1C8.19,64.05,7,62.82,5.9,63.4Z"/><path class="cls-5" d="M11.51,96.16v0c.09.05.11.07,0,0h0Z"/><path class="cls-6" d="M11.58,59.49a7.19,7.19,0,0,1,.32-2.4c.52-1,1.6-1.52,2.41-2.29,2.23-2.15,2-5.78,3.51-8.49s4.3-4.1,7.19-4.7a6.63,6.63,0,0,1,3.3,0A5.37,5.37,0,0,1,31.7,46.5a11.77,11.77,0,0,1-1.7,6,23.82,23.82,0,0,0-2.07,4.29c-.49,1.65-.48,3.4-.89,5.07-1.18,4.72-5.5,7.91-9.71,10.35a1.34,1.34,0,0,1-.69.24c-.48,0-.78-.51-1.13-.85C14.86,71,10,70.35,11.58,59.49Z"/><path class="cls-5" d="M14.74,61.42l.36.28a2.7,2.7,0,0,0,.79.44l.22,0h.22a1.17,1.17,0,0,0,.4-.08,1.62,1.62,0,0,0,.38-.21.86.86,0,0,1-.28.38,1.11,1.11,0,0,1-.46.22,1,1,0,0,1-.29,0,1.31,1.31,0,0,1-.3-.05,1.64,1.64,0,0,1-.83-.64A1.57,1.57,0,0,1,14.74,61.42Z"/><path class="cls-5" d="M13.89,66.06l.07.17a1.87,1.87,0,0,0,.23.41,1.17,1.17,0,0,0,1.13.49.45.45,0,0,1,.31,0,.68.68,0,0,1,.19.18,1.4,1.4,0,0,0,.25.24,1.09,1.09,0,0,0,.56.22.41.41,0,0,0,.37-.16.39.39,0,0,0,.08-.16.37.37,0,0,1,0,.19.5.5,0,0,1-.42.33,1.19,1.19,0,0,1-.74-.15,1.38,1.38,0,0,1-.34-.27l-.1-.1-.08,0a1.23,1.23,0,0,1-.87-.17,1.36,1.36,0,0,1-.49-.57A1.26,1.26,0,0,1,13.89,66.06Z"/><path class="cls-5" d="M14.73,56.82a5.77,5.77,0,0,1,.64.33,4.09,4.09,0,0,0,1.37.57,3,3,0,0,0,.78,0,5.34,5.34,0,0,0,.7-.07,1,1,0,0,0,.42-.21.64.64,0,0,0,.12-.15.45.45,0,0,1-.06.19.88.88,0,0,1-.41.36,3.19,3.19,0,0,1-.73.19,2.54,2.54,0,0,1-.88,0,2.58,2.58,0,0,1-.82-.31,4.32,4.32,0,0,1-.6-.45C14.94,57,14.73,56.82,14.73,56.82Z"/><path class="cls-6" d="M22,88.75a32.38,32.38,0,0,1-3,9c-1.39,2.76-3.63,6.65-7.89,7.1-.6.06-1.73-.93-1.73-.93l-.26-.2h0l0,0h0c-2.79-1.47-4-3.56-5.07-6.57-.82-2.35-2.56-4.22-3-5.18-1.56-3.2,4.43-6,3.56-9.29a.3.3,0,0,1,.32-.36h0a.81.81,0,0,0,.77-1.21,4.72,4.72,0,0,1-.78-2.33,4.1,4.1,0,0,1,.85-2.34,8.5,8.5,0,0,1,7.86-3.06l.48.08a10.3,10.3,0,0,1,7.29,5.91A16.17,16.17,0,0,1,22,88.75Z"/><path class="cls-5" d="M3.56,90.5a.91.91,0,0,0-.08.32,1,1,0,0,0,.27.76,1.37,1.37,0,0,0,1,.41,1.89,1.89,0,0,0,.64-.15,1.18,1.18,0,0,1,.82,0,4.47,4.47,0,0,0,.67.22,3.48,3.48,0,0,0,.66.09,2.15,2.15,0,0,0,1.14-.24,1.46,1.46,0,0,0,.6-.58A1,1,0,0,0,9.43,91a.83.83,0,0,1,0,.34,1.43,1.43,0,0,1-.56.73,2.24,2.24,0,0,1-1.25.39,3.69,3.69,0,0,1-1.46-.29.81.81,0,0,0-.6,0,2,2,0,0,1-.74.13,1.56,1.56,0,0,1-1.18-.6,1.1,1.1,0,0,1-.18-.9A.78.78,0,0,1,3.56,90.5Z"/><path class="cls-5" d="M6.87,83.88a6.21,6.21,0,0,1,.62.39A4.53,4.53,0,0,0,8.85,85a3.54,3.54,0,0,0,.8.12c.27,0,.53,0,.72,0a1.06,1.06,0,0,0,.47-.14.59.59,0,0,0,.15-.13.42.42,0,0,1-.1.18.94.94,0,0,1-.48.29,3.68,3.68,0,0,1-.77.08,2.84,2.84,0,0,1-.9-.09,2.87,2.87,0,0,1-.81-.4,4.67,4.67,0,0,1-.57-.51C7.06,84.11,6.87,83.88,6.87,83.88Z"/><path class="cls-5" d="M6.83,95.86l.61.11a5.26,5.26,0,0,0,1.28.12A2.19,2.19,0,0,0,9.35,96a1.87,1.87,0,0,0,.51-.28,1.84,1.84,0,0,0,.3-.3l.1-.13a1,1,0,0,1,0,.17,1.28,1.28,0,0,1-.22.41,1.69,1.69,0,0,1-.52.42,2,2,0,0,1-.74.2,3,3,0,0,1-1.36-.28A3.69,3.69,0,0,1,6.83,95.86Z"/><path class="cls-5" d="M6.73,99.53a2.32,2.32,0,0,1,.28.13,4.83,4.83,0,0,0,.54.27,1.06,1.06,0,0,0,.53.07.62.62,0,0,0,.26-.11.42.42,0,0,1-.18.29.73.73,0,0,1-.34.13.75.75,0,0,1-.2,0l-.21-.05a1.22,1.22,0,0,1-.55-.45A1.31,1.31,0,0,1,6.73,99.53Z"/><path class="cls-7" d="M96,7.26a26,26,0,0,1-4.72-1.42,5.65,5.65,0,0,1-1-.49A8.47,8.47,0,0,0,88.74,5c.38,1.31,1.29,4.6,1.59,5.32,2.06.43,4.77,1.22,6.39,1.55C96.46,10.44,96.3,8.89,96,7.26Z"/><path class="cls-8" d="M98.23,2.06a10.88,10.88,0,0,1-.82,2.41C97,5.3,96,7.33,96,7.33s.5,3.14.72,4.59c.56-.89,2.2-4,2.2-4S98.64,4.35,98.23,2.06Z"/><path class="cls-9" d="M98.09,2.06a10,10,0,0,1-2.86-.86A30.54,30.54,0,0,0,91.67.12,33.34,33.34,0,0,0,88.74,5,63.29,63.29,0,0,0,96,7.33a17.41,17.41,0,0,0,2.22-5.27Z"/><path class="cls-6" d="M54.22,24.65l-1.8-7.31A8.28,8.28,0,0,0,51,13.95c-1.41-1.71-3.89-2-6.11-2a8.56,8.56,0,0,0-3,.42A9.55,9.55,0,0,0,39,14.45c-2.78,2.55-5.68,5.29-6.68,8.92a2.23,2.23,0,0,1-.52,1.12,2,2,0,0,1-.84.37c-1.68.45-3.5.91-4.62,2.24-1.75,2.07-1.05,5.2-1.72,7.83-.31,1.21-2.1,2.58-2.23,4.32a2.42,2.42,0,0,0,.47,1.32,4,4,0,0,0,1.48,1.61,3.7,3.7,0,0,0,1.7.36c3.1,0,5.87-1.74,8.72-3,2.62-1.13,5.44-1.84,7.84-3.38,3.92-2.51,6.33-7,10.38-9.29.55-.32,1.2-.66,1.34-1.28A2.12,2.12,0,0,0,54.22,24.65Z"/><path class="cls-10" d="M21.58,30.52c1.61,2.6,2.06,5.17,3,8.09A154.22,154.22,0,0,0,33.22,60a2.85,2.85,0,0,1,.36,2.58,1.84,1.84,0,0,1-2.24.62,4.26,4.26,0,0,1-1.84-1.67,24,24,0,0,1-2.19-4.24A196.45,196.45,0,0,1,19.49,34a4.31,4.31,0,0,1-.16-2.75C19.68,30.41,20.91,29.86,21.58,30.52Z"/><path class="cls-11" d="M29.84,35.17h0a20.89,20.89,0,0,0-2.15,1.47v0l6.6,1a16.5,16.5,0,0,0,1.29-1.44C34,35.82,30.16,35.22,29.84,35.17Z"/><path class="cls-11" d="M33.34,43.7a13.36,13.36,0,0,0,1.15-1.35s.76-4.89,1-6.13c-.51.51-1,.94-1.52,1.44a1.56,1.56,0,0,0-.28.33,1.49,1.49,0,0,0-.13.36c-.23.91.57,2.74-.37,2.77A12.38,12.38,0,0,0,33.34,43.7Z"/><path class="cls-12" d="M34.25,37.66c-.45,2.08-.57,4-.92,6-1.78-.15-5.08-.73-6.44-.79a.08.08,0,0,1-.07-.1c.37-2.09.42-3.95.84-6.15h0Z"/><path class="cls-6" d="M92.56,8.48C91.47,5.85,90.24,3,87.81,1.55,85.12-.09,81.71.32,78.59.78a25.11,25.11,0,0,0-6.33,1.51c-2.1.91-3.93,2.38-6.09,3.16-2.9,1-6.24.77-8.92,2.31a14.85,14.85,0,0,0-4.46,4.75L50,16.58l0-.41c-.36.92-.65,2.14.12,2.76a5,5,0,0,0,1,.49c1.37.66,1.67,2.44,1.89,3.95.33,2.25,1.37,4.91,3.62,5.18a5,5,0,0,0,2.15-.34,22.18,22.18,0,0,0,8.44-5.14c1.93-1.88,3.72-4.24,6.37-4.76,2.08-.41,4.25.44,6.34.06,4.48-.83,6.55-6.83,11-7.69.69-.13,1.54-.23,1.8-.89A1.78,1.78,0,0,0,92.56,8.48Z"/><path class="cls-10" d="M70,3.1,68.73,0s-2.31,0-2.9.58c0,0,6.82,16.39,12.87,24,.37.47,2.68-1.44,2.67-1.67C81.36,21.74,71.68,7,70,3.1Z"/><path class="cls-4" d="M64.53,16.22A11.76,11.76,0,0,1,69.3,4.9a3.47,3.47,0,0,1,1.55-.69c2.33-.26,3.49,3.27,5.81,3.58,1.27.17,2.42-.7,3.51-1.37a14.09,14.09,0,0,1,7.54-2.08,1.76,1.76,0,0,1,1.17.32,1.4,1.4,0,0,1,.39.76,7.75,7.75,0,0,1-.46,3.34c-.26,1.11-.24,2.46.65,3.16a10.19,10.19,0,0,0,2.22.84c1.46.67,2,2.44,2.23,4a16.62,16.62,0,0,1-1.1,8.13,1.7,1.7,0,0,1-.61.87,1.48,1.48,0,0,1-1.74-.53,6.17,6.17,0,0,0-1.34-1.43c-1-.58-2.31,0-3.29.69s-2.16,1.37-3.27,1-1.74-2.13-3-2.46a2.8,2.8,0,0,0-2.08.48,36.61,36.61,0,0,0-3,2.26,6,6,0,0,1-3.4,1.38,2.83,2.83,0,0,1-2.83-2c-.13-.61,0-1.32-.45-1.77a1.54,1.54,0,0,0-1.75-.15,14.88,14.88,0,0,1-1.66.86,2.3,2.3,0,0,1-2.26-3.87,7.15,7.15,0,0,1,2-1.06,2.29,2.29,0,0,0,1.47-1.62c.08-.76-.87-1.53-1.46-1"/><path class="cls-4" d="M136.7,24.73a11.76,11.76,0,0,1-9.25,8.09,3.47,3.47,0,0,1-1.7-.06c-2.21-.79-1.7-4.47-3.66-5.76-1.07-.71-2.48-.43-3.76-.31a14.08,14.08,0,0,1-7.69-1.43,1.76,1.76,0,0,1-.91-.8,1.4,1.4,0,0,1,0-.86,7.75,7.75,0,0,1,1.88-2.8c.72-.88,1.29-2.1.79-3.13-.35-.72-1.12-1.11-1.63-1.73-1-1.24-.77-3.08-.24-4.6a16.62,16.62,0,0,1,4.55-6.83A1.7,1.7,0,0,1,116,4c.66-.06,1.15.6,1.34,1.24a6.17,6.17,0,0,0,.58,1.88c.67,1,2.09,1,3.26.82s2.55-.28,3.36.57.64,2.68,1.64,3.54a2.8,2.8,0,0,0,2.08.48,36.6,36.6,0,0,0,3.66-.73,6,6,0,0,1,3.67.25,2.83,2.83,0,0,1,1.68,3c-.15.6-.55,1.19-.38,1.79a1.54,1.54,0,0,0,1.51.9,14.93,14.93,0,0,1,1.87,0,2.3,2.3,0,0,1,.34,4.47,7.15,7.15,0,0,1-2.28.07,2.29,2.29,0,0,0-2,.82c-.41.65.12,1.75.86,1.57"/><path class="cls-10" d="M1,84.76l.36,2.8A118.8,118.8,0,0,0,13,80.48a17.63,17.63,0,0,0,3-2.53c.79-.89,1.42-1.91,2.15-2.86s1.64-1.92,2.39-2.93a15.82,15.82,0,0,0,2.78-6.22,6.79,6.79,0,0,0-1.57-.42.7.7,0,0,0-.43,0,.74.74,0,0,0-.25.29,52.28,52.28,0,0,1-7.19,9.52,35.39,35.39,0,0,1-4.16,3.79,53.49,53.49,0,0,1-4.78,3.13C3.66,83,2.19,83.84,1,84.58Z"/><path class="cls-6" d="M128.87,16c-1.36-2-3.39-3.53-4.78-5.53A7.72,7.72,0,0,0,122.89,9c-2.25-1.93-6.63.08-8.22-2.42-.21-.33-.36-.73-.7-.93a1.56,1.56,0,0,0-1-.1c-2.17.28-4.31,1.08-6.48.81-1.26-.16-2.42-1.08-3.69-1-11.93,1.14-9.44,7.69-8.21,9.36a19.79,19.79,0,0,0,3.33,3.78c2.88,2.33,6.81,2.85,10.51,2.92s7.49-.2,11,.87a49.48,49.48,0,0,0,4.79,1.56A5.26,5.26,0,0,0,129,22.79C130.74,21.06,130.23,18.07,128.87,16Z"/><path class="cls-6" d="M150.63,30.62c-2.42-4.31-4.14-1.55-6-6.16-1.11-2.82-2.78-4.44-4.7-5.14a27.48,27.48,0,0,0-4.13-.7c-1.56-.27-2.81-1.54-4.37-1.79a7.09,7.09,0,0,0-3.08.42c-1.56.45-3.31,1.07-4,2.56l.42-.34a1.78,1.78,0,0,0-.16,1.44l.54,2.68a20.67,20.67,0,0,0,1.83,5.93,10.49,10.49,0,0,0,8,5.3c2.63.27,5.29-.47,7.93-.2a18.36,18.36,0,0,0,3.93.37,5,5,0,0,0,3.79-2.66,1.8,1.8,0,0,0,.23-.82A1.93,1.93,0,0,0,150.63,30.62Z"/><path class="cls-6" d="M159.74,45.95c-.31-4.94-3.06-3.2-2.69-8.13.22-3-.58-5.21-2-6.67a27.47,27.47,0,0,0-3.41-2.42c-1.29-.92-1.86-2.6-3.16-3.51a7.09,7.09,0,0,0-3-1c-1.6-.27-3.44-.48-4.67.58l.53-.12a1.78,1.78,0,0,0-.77,1.23l-.68,2.65a20.67,20.67,0,0,0-.92,6.14A10.49,10.49,0,0,0,143.89,43c2.25,1.39,5,1.88,7.23,3.26a18.36,18.36,0,0,0,3.38,2,5,5,0,0,0,4.57-.75,1.8,1.8,0,0,0,.56-.64A1.93,1.93,0,0,0,159.74,45.95Z"/><path class="cls-12" d="M61.22,19.52a.3.3,0,0,0,.42.36c2.08-.32,7-.5,7-.5s0-.45,0-.59l-.35-5.86c-2.19.11-4.76.07-7.15.25C60.88,13.2,61.34,17.14,61.22,19.52Z"/><path class="cls-13" d="M71,13a15.56,15.56,0,0,0-2.68,0c.1,1.95.22,4.81.32,6.45.82-.05,2.62-.17,2.65-.2S71.08,14.46,71,13Z"/><path class="cls-10" d="M101.5.54A48.8,48.8,0,0,1,77.82,17.31l.32.33c.24,1.1.82,2.48,1.94,2.42a2.38,2.38,0,0,0,.82-.25A69.21,69.21,0,0,0,104.36,2.69,7.34,7.34,0,0,0,101.5.54Z"/><path class="cls-10" d="M116.57,3.14a3.74,3.74,0,0,0-1.4,1.34,63.65,63.65,0,0,1-7.66,8.08L99.3,20.27l.22-.06c-.27.62.41,1.32,1.09,1.34a3.1,3.1,0,0,0,1.83-.81c6.25-4.65,12.08-10.14,15.76-17A1.2,1.2,0,0,0,116.57,3.14Z"/><path class="cls-10" d="M115.21,21.62a3.74,3.74,0,0,1,1.89-.45A63.63,63.63,0,0,0,128,19.11c3.07-.77,8.61-2,10.27-2.46,1.29-.34,1.65,1.76,1.17,1.89-.79.22-16.28,5.24-23.75,4.83a1,1,0,0,1-.54-1.74Z"/><path class="cls-4" d="M59.78,30.35c-.51-2.21-3.4-3.83-2.73-6,.3-1,1.32-2,.8-2.85-.38-.65-1.32-.66-2.05-.47a3.28,3.28,0,0,1-2.21.15c-1.15-.56-1-2.29-1.75-3.29a2.81,2.81,0,0,0-3.45-.39A13.8,13.8,0,0,0,45.55,20a4.57,4.57,0,0,1-3.32,1.54,7.32,7.32,0,0,0-2.08-.23,2.85,2.85,0,0,0-1.75,1.86,14.4,14.4,0,0,0-1.17,5,1.65,1.65,0,0,1-.25,1c-.6.74-1.72-.08-2.65-.26A2.44,2.44,0,0,0,31.94,30a5.25,5.25,0,0,0-.71,2.68,13.1,13.1,0,0,0,2.63,8.43l1.75-.46.19-.31a3.14,3.14,0,0,0,4.9.8c.6-.64.91-1.52,1.61-2,1.54-1.16,3.65.13,5.55.5,3.23.64,6.28-1.56,8.82-3.66C58.39,34.48,60.29,32.54,59.78,30.35Z"/><path class="cls-10" d="M57.22,44.92a53.47,53.47,0,0,1-9.9-5,40.76,40.76,0,0,1-8.13-7.83,85.62,85.62,0,0,1-9.53-14.27c-.22-.24,3.45-2.27,3.61-2.07s5.82,7.78,8.46,11.14a90.83,90.83,0,0,0,6.52,7.71A45.41,45.41,0,0,0,53,38.82c1.32,1,2.7,2,4,3,.62.52,1.28,1.24,1.09,2a1.2,1.2,0,0,1-1.88.58"/><path class="cls-10" d="M45.13,31.93l5.18-21.31a3.72,3.72,0,0,1,.6-1.48,2.7,2.7,0,0,1,2.3-.83,1.3,1.3,0,0,1,1.2.64,1.63,1.63,0,0,1,0,.86c-.3,1.81-.77,11.07-1.56,13.77l-2.6,8.93c-.14.48-.35,1-.83,1.16a1.6,1.6,0,0,1-.82-.1,8,8,0,0,1-2.57-.9,1.66,1.66,0,0,1-.49-2.36"/><path class="cls-14" d="M25.18,57.09A8.46,8.46,0,0,1,20,62.94a9.15,9.15,0,0,1-2.48.41,8.19,8.19,0,0,1-3.2-.44c-2.44-.92-4-3.3-5.34-5.53.17-.11.42-.27.74-.45l.76-.42c2.61-1.4,7.64-3.88,11.62-6l1-.54,1.67-.92A14.07,14.07,0,0,1,25.18,57.09Z"/><path class="cls-15" d="M20.35,60.14a5.84,5.84,0,0,1-7-.75,21,21,0,0,1-2.49-3.11l12-6.19S25,57.6,20.35,60.14Z"/><path class="cls-14" d="M14.66,55.83a2.73,2.73,0,0,0-.75,1.12,1.08,1.08,0,0,0-.07.56.5.5,0,0,0,.36.4.49.49,0,0,0,.4-.12,1.07,1.07,0,0,0,.25-.35,2.61,2.61,0,0,0,.27-1.11.61.61,0,0,0-.13-.44c-.11-.11-.34-.11-.4,0"/><path class="cls-14" d="M17.12,57.34a2.73,2.73,0,0,0,0,1.35,1.08,1.08,0,0,0,.27.5.5.5,0,0,0,.53.12.49.49,0,0,0,.26-.34,1.06,1.06,0,0,0,0-.43,2.61,2.61,0,0,0-.44-1.06.61.61,0,0,0-.36-.28c-.16,0-.34.11-.3.26"/><path class="cls-14" d="M19.17,56a2.73,2.73,0,0,0,1,.9,1.08,1.08,0,0,0,.55.15.5.5,0,0,0,.45-.3.49.49,0,0,0-.06-.42,1.06,1.06,0,0,0-.31-.3,2.61,2.61,0,0,0-1.06-.42.61.61,0,0,0-.46.06c-.13.09-.16.32,0,.4"/><path class="cls-14" d="M20,53.29a2.73,2.73,0,0,0,1.27.46,1.08,1.08,0,0,0,.56-.07.45.45,0,0,0,.09-.81,1.06,1.06,0,0,0-.4-.16,2.61,2.61,0,0,0-1.14,0A.61.61,0,0,0,20,53c-.08.13,0,.36.13.38"/><path class="cls-14" d="M86.63,7.61a8.46,8.46,0,0,1,.1,7.84,9.15,9.15,0,0,1-1.55,2,8.19,8.19,0,0,1-2.65,1.84c-2.42,1-5.16.26-7.68-.46,0-.2.13-.48.24-.83s.17-.52.28-.83c1-2.8,3-8,4.51-12.26q.2-.56.38-1.09c.22-.64.43-1.24.61-1.8A14.07,14.07,0,0,1,86.63,7.61Z"/><path class="cls-15" d="M85.14,13.12a5.84,5.84,0,0,1-5.68,4.2,21,21,0,0,1-3.94-.61L80.19,4S86.86,8.1,85.14,13.12Z"/><path class="cls-14" d="M78,13.79a2.73,2.73,0,0,0,.2,1.33,1.08,1.08,0,0,0,.33.46.5.5,0,0,0,.54.06.49.49,0,0,0,.22-.36,1.07,1.07,0,0,0-.05-.43,2.61,2.61,0,0,0-.55-1,.61.61,0,0,0-.39-.24c-.16,0-.32.15-.27.29"/><path class="cls-14" d="M80.86,13.24a2.73,2.73,0,0,0,.95,1,1.08,1.08,0,0,0,.54.18.5.5,0,0,0,.47-.27.49.49,0,0,0,0-.42,1.06,1.06,0,0,0-.3-.32,2.61,2.61,0,0,0-1-.48.61.61,0,0,0-.46,0c-.13.09-.18.31,0,.4"/><path class="cls-14" d="M81.44,10.83a2.73,2.73,0,0,0,1.35,0,1.08,1.08,0,0,0,.5-.26.5.5,0,0,0,.13-.53.49.49,0,0,0-.33-.26,1.06,1.06,0,0,0-.43,0,2.61,2.61,0,0,0-1.07.41.61.61,0,0,0-.29.36c0,.15.1.34.26.31"/><path class="cls-14" d="M80.26,8.3a2.73,2.73,0,0,0,1.24-.52,1.08,1.08,0,0,0,.37-.43.5.5,0,0,0-.08-.53.49.49,0,0,0-.4-.12,1.06,1.06,0,0,0-.4.16,2.61,2.61,0,0,0-.83.78.61.61,0,0,0-.14.44c0,.15.22.28.35.19"/><path class="cls-5" d="M27.32,33.31l.36.28a2.7,2.7,0,0,0,.79.44l.22,0h.22a1.17,1.17,0,0,0,.4-.08,1.62,1.62,0,0,0,.38-.21.86.86,0,0,1-.28.38,1.11,1.11,0,0,1-.46.22,1,1,0,0,1-.29,0,1.3,1.3,0,0,1-.3-.05,1.64,1.64,0,0,1-.83-.64A1.57,1.57,0,0,1,27.32,33.31Z"/><path class="cls-5" d="M41.68,16.72l0,.13a1.82,1.82,0,0,0,.13.33,1.09,1.09,0,0,0,.73.57,1.6,1.6,0,0,0,1-.13,2.09,2.09,0,0,0,.31-.17l.12-.08-.07.12a1.18,1.18,0,0,1-.25.29,1.45,1.45,0,0,1-.49.27,1.24,1.24,0,0,1-.32.06,1.55,1.55,0,0,1-.34,0,1.41,1.41,0,0,1-.32-.13,1,1,0,0,1-.26-.21.84.84,0,0,1-.17-.26,1.13,1.13,0,0,1-.08-.78Z"/><path class="cls-5" d="M104.17,8.18a1.12,1.12,0,0,0,.17.17.86.86,0,0,0,.38.16,1.48,1.48,0,0,0,.44,0,1.46,1.46,0,0,0,.24-.05.45.45,0,0,1-.15.23.72.72,0,0,1-.6.16.76.76,0,0,1-.32-.15.59.59,0,0,1-.17-.25.39.39,0,0,1,0-.21A.53.53,0,0,1,104.17,8.18Z"/><path class="cls-5" d="M29.08,28.78a1.13,1.13,0,0,0,.15.19.86.86,0,0,0,.37.19,1.48,1.48,0,0,0,.44,0,1.45,1.45,0,0,0,.24,0,.45.45,0,0,1-.17.22.72.72,0,0,1-.61.11.76.76,0,0,1-.3-.17.59.59,0,0,1-.15-.27.39.39,0,0,1,0-.21Z"/><path class="cls-5" d="M57,10.66l.07.17a1.89,1.89,0,0,0,.23.41,1.17,1.17,0,0,0,1.13.49.45.45,0,0,1,.31,0,.68.68,0,0,1,.19.18,1.39,1.39,0,0,0,.25.24,1.09,1.09,0,0,0,.56.22.41.41,0,0,0,.37-.16.39.39,0,0,0,.08-.16.37.37,0,0,1,0,.19.5.5,0,0,1-.42.33,1.2,1.2,0,0,1-.74-.15,1.38,1.38,0,0,1-.34-.27l-.1-.1-.08,0a1.23,1.23,0,0,1-.87-.17,1.36,1.36,0,0,1-.49-.57A1.26,1.26,0,0,1,57,10.66Z"/><path class="cls-5" d="M19,48.21a5.79,5.79,0,0,1,.64.33,4.09,4.09,0,0,0,1.37.57,3,3,0,0,0,.78,0,5.3,5.3,0,0,0,.7-.07,1,1,0,0,0,.42-.21.63.63,0,0,0,.12-.15.45.45,0,0,1-.06.19.88.88,0,0,1-.41.36,3.19,3.19,0,0,1-.73.19,2.55,2.55,0,0,1-.88,0,2.58,2.58,0,0,1-.82-.31,4.33,4.33,0,0,1-.6-.45C19.16,48.41,19,48.21,19,48.21Z"/><path class="cls-16" d="M6,72.8c-4.93,7.83,5.79,14.9,5.79,14.9L21.93,73S11.65,63.8,6,72.8Z"/><path class="cls-14" d="M7.67,80.77a8.46,8.46,0,0,1,1.92-7.6,9.15,9.15,0,0,1,2-1.51,8.19,8.19,0,0,1,3-1.09c2.59-.32,5.06,1.08,7.3,2.43-.1.18-.25.43-.45.74s-.3.46-.48.73c-1.67,2.45-5,7-7.52,10.69l-.65,1c-.37.56-.73,1.09-1.05,1.59A14.06,14.06,0,0,1,7.67,80.77Z"/><path class="cls-15" d="M10.53,75.84a5.84,5.84,0,0,1,6.57-2.6,21,21,0,0,1,3.65,1.61L13,85.91S7.57,80.25,10.53,75.84Z"/><path class="cls-14" d="M17.57,77a2.73,2.73,0,0,0,.15-1.34,1.08,1.08,0,0,0-.2-.53A.5.5,0,0,0,17,75a.49.49,0,0,0-.3.3,1.06,1.06,0,0,0-.06.43,2.61,2.61,0,0,0,.28,1.11.61.61,0,0,0,.32.33c.15,0,.35-.06.33-.22"/><path class="cls-14" d="M14.69,76.83A2.73,2.73,0,0,0,14,75.65a1.08,1.08,0,0,0-.47-.32.5.5,0,0,0-.52.14.49.49,0,0,0-.07.42,1.06,1.06,0,0,0,.2.38A2.61,2.61,0,0,0,14,77a.61.61,0,0,0,.45.08c.15,0,.25-.25.14-.37"/><path class="cls-14" d="M13.51,79a2.73,2.73,0,0,0-1.31-.33,1.08,1.08,0,0,0-.55.12.5.5,0,0,0-.26.47.49.49,0,0,0,.25.34,1.07,1.07,0,0,0,.42.12,2.61,2.61,0,0,0,1.14-.12.61.61,0,0,0,.37-.27c.07-.14,0-.36-.17-.36"/><path class="cls-14" d="M14,81.75a2.73,2.73,0,0,0-1.34.18,1.08,1.08,0,0,0-.47.32.5.5,0,0,0-.06.54.49.49,0,0,0,.36.22,1.06,1.06,0,0,0,.43,0,2.61,2.61,0,0,0,1-.54.61.61,0,0,0,.25-.39c0-.16-.14-.33-.29-.27"/><path class="cls-16" d="M46.55,25c1.53,9.13,14.23,7.27,14.23,7.27L58.59,14.56S44.8,14.53,46.55,25Z"/><path class="cls-14" d="M53.11,29.85a8.46,8.46,0,0,1-3.62-7,9.15,9.15,0,0,1,.5-2.46,8.19,8.19,0,0,1,1.54-2.83c1.73-2,4.49-2.56,7.07-3,0,.2.1.49.16.85s.08.54.13.86c.39,2.94.93,8.52,1.49,13q.07.59.15,1.15c.09.67.18,1.3.27,1.89A14.07,14.07,0,0,1,53.11,29.85Z"/><path class="cls-15" d="M52,24.26A5.84,5.84,0,0,1,55.15,18a21,21,0,0,1,3.79-1.23l1.54,13.44S52.69,29.52,52,24.26Z"/><path class="cls-14" d="M58,20.47a2.73,2.73,0,0,0-.78-1.1,1.08,1.08,0,0,0-.5-.27.5.5,0,0,0-.5.19.49.49,0,0,0,0,.42,1.07,1.07,0,0,0,.24.36,2.61,2.61,0,0,0,.95.64.61.61,0,0,0,.46,0c.14-.06.22-.28.11-.38"/><path class="cls-14" d="M55.73,22.23a2.73,2.73,0,0,0-1.28-.43,1.08,1.08,0,0,0-.56.08.5.5,0,0,0-.3.45.49.49,0,0,0,.22.36,1.06,1.06,0,0,0,.41.15,2.61,2.61,0,0,0,1.14,0,.61.61,0,0,0,.39-.24c.08-.14,0-.36-.14-.37"/><path class="cls-14" d="M56.3,24.64a2.73,2.73,0,0,0-1.2.62,1.08,1.08,0,0,0-.33.46.5.5,0,0,0,.12.53.49.49,0,0,0,.41.09,1.07,1.07,0,0,0,.39-.19,2.61,2.61,0,0,0,.77-.85.61.61,0,0,0,.1-.45c0-.15-.24-.26-.37-.16"/><path class="cls-14" d="M58.49,26.37a2.73,2.73,0,0,0-.88,1,1.08,1.08,0,0,0-.14.55.5.5,0,0,0,.31.44.49.49,0,0,0,.42-.08A1.07,1.07,0,0,0,58.5,28a2.61,2.61,0,0,0,.39-1.07.61.61,0,0,0-.08-.45c-.1-.12-.32-.15-.4,0"/><path class="cls-16" d="M121,22c5.44-7.48-4.78-15.25-4.78-15.25l-11.12,14S114.75,30.6,121,22Z"/><path class="cls-14" d="M119.86,13.94a8.46,8.46,0,0,1-2.42,7.45,9.15,9.15,0,0,1-2.1,1.37,8.19,8.19,0,0,1-3.1.88c-2.61.14-5-1.42-7.12-2.91.11-.17.28-.41.5-.71s.33-.44.53-.69c1.83-2.34,5.43-6.63,8.22-10.16l.72-.91c.41-.53.8-1,1.16-1.51A14.06,14.06,0,0,1,119.86,13.94Z"/><path class="cls-15" d="M116.68,18.67a5.84,5.84,0,0,1-6.73,2.15A21,21,0,0,1,106.41,19l8.51-10.51S119.92,14.47,116.68,18.67Z"/><path class="cls-14" d="M109.73,17a2.73,2.73,0,0,0-.24,1.33,1.08,1.08,0,0,0,.16.54.5.5,0,0,0,.49.23.49.49,0,0,0,.32-.27,1.07,1.07,0,0,0,.09-.42,2.61,2.61,0,0,0-.2-1.13.61.61,0,0,0-.29-.35c-.15-.06-.35,0-.35.19"/><path class="cls-14" d="M112.59,17.4a2.73,2.73,0,0,0,.59,1.21,1.08,1.08,0,0,0,.45.35.5.5,0,0,0,.53-.11.49.49,0,0,0,.1-.41,1.06,1.06,0,0,0-.18-.4,2.61,2.61,0,0,0-.83-.79.61.61,0,0,0-.45-.11c-.15,0-.27.24-.17.36"/><path class="cls-14" d="M113.91,15.31a2.73,2.73,0,0,0,1.28.42,1.08,1.08,0,0,0,.56-.08.5.5,0,0,0,.29-.46.49.49,0,0,0-.23-.36,1.06,1.06,0,0,0-.41-.15,2.61,2.61,0,0,0-1.14,0,.61.61,0,0,0-.39.24c-.08.14,0,.36.14.37"/><path class="cls-14" d="M113.6,12.54a2.73,2.73,0,0,0,1.35-.09,1.08,1.08,0,0,0,.49-.29.5.5,0,0,0,.1-.53.49.49,0,0,0-.34-.24,1.06,1.06,0,0,0-.43,0,2.61,2.61,0,0,0-1,.47.61.61,0,0,0-.27.37c0,.16.12.34.27.29"/><path class="cls-2" d="M172.84,59.6,13.16,104.93a1.58,1.58,0,0,1-2-1.44A86.81,86.81,0,0,1,173.79,57.31,1.58,1.58,0,0,1,172.84,59.6Z"/><circle class="cls-17" cx="113.76" cy="37.74" r="1.24" transform="translate(-2.51 8.63) rotate(-4.3)"/><circle class="cls-17" cx="126.69" cy="49.77" r="0.97" transform="translate(-3.37 9.63) rotate(-4.3)"/><circle class="cls-17" cx="102.66" cy="55.72" r="0.61" transform="translate(-3.89 7.86) rotate(-4.3)"/><circle class="cls-17" cx="147.21" cy="56.65" r="0.61" transform="translate(-3.83 11.2) rotate(-4.3)"/><circle class="cls-18" cx="122.64" cy="64.45" r="1.24" transform="translate(-4.49 9.38) rotate(-4.3)"/><circle class="cls-18" cx="140.42" cy="40.7" r="0.97" transform="translate(-2.66 10.64) rotate(-4.3)"/><circle class="cls-18" cx="110.88" cy="19.92" r="0.61" transform="translate(-1.18 8.36) rotate(-4.3)"/><circle class="cls-18" cx="84.15" cy="26.2" r="1.24" transform="translate(-1.73 6.38) rotate(-4.3)"/><circle class="cls-18" cx="91.64" cy="41.92" r="0.97" transform="translate(-2.89 6.99) rotate(-4.3)"/><circle class="cls-17" cx="93.61" cy="68.18" r="1.24" transform="translate(-4.84 7.2) rotate(-4.3)"/><circle class="cls-17" cx="46.55" cy="55.79" r="1.24" transform="translate(-4.05 3.65) rotate(-4.3)"/><circle class="cls-17" cx="60.45" cy="64.7" r="0.97" transform="matrix(1, -0.07, 0.07, 1, -4.68, 4.71)"/><circle class="cls-17" cx="68.83" cy="39.85" r="0.97" transform="matrix(1, -0.07, 0.07, 1, -2.79, 5.27)"/><circle class="cls-17" cx="47.61" cy="82.84" r="0.97" transform="translate(-6.07 3.8) rotate(-4.29)"/><circle class="cls-17" cx="34.41" cy="78.07" r="0.61" transform="translate(-5.75 2.8) rotate(-4.3)"/><circle class="cls-18" cx="26.74" cy="67.23" r="1.24" transform="translate(-4.96 2.19) rotate(-4.3)"/><circle class="cls-18" cx="23.23" cy="91.35" r="0.97" transform="translate(-6.79 2) rotate(-4.3)"/><circle class="cls-18" cx="50.49" cy="32.97" r="0.97" transform="translate(-2.33 3.87) rotate(-4.29)"/><circle class="cls-18" cx="70.47" cy="80.59" r="0.61" transform="translate(-5.84 5.51) rotate(-4.3)"/><circle class="cls-18" cx="81.19" cy="55.35" r="0.61" transform="translate(-3.92 6.24) rotate(-4.3)"/><path class="cls-18" d="M129.13,18.43a91.15,91.15,0,0,0-52.55-.69C39,28.41,13.68,60.76,11.1,96.6a86.81,86.81,0,0,1,118-78.16Z"/></g></g></svg>