<?xml version="1.0" encoding="UTF-8"?>
<svg width="224px" height="274px" viewBox="0 0 224 274" version="1.1" xmlns="http://www.w3.org/2000/svg" xmlns:xlink="http://www.w3.org/1999/xlink">
    <!-- Generator: Sketch 46.2 (44496) - http://www.bohemiancoding.com/sketch -->
    <title>taco</title>
    <desc>Created with Sketch.</desc>
    <defs></defs>
    <g id="Page-1" stroke="none" stroke-width="1" fill="none" fill-rule="evenodd">
        <g id="Start-screen" transform="translate(-76.000000, -140.000000)">
            <g id="taco" transform="translate(65.000000, 129.000000)">
                <text id="TACO" fill="#FFFFFF" font-family="ChunkFive" font-size="60.74" font-weight="normal">
                    <tspan x="33" y="245">TACO</tspan>
                </text>
                <path d="M122.14,26.15 C64.0091111,26.1555229 16.8881596,73.2824439 16.8900005,131.413333 C16.8918415,189.544222 64.0157778,236.668159 122.146667,236.669999 C180.277556,236.67184 227.404477,189.550889 227.41,131.42 C227.41,103.50066 216.319085,76.7248237 196.577131,56.9828691 C176.835176,37.2409146 150.05934,26.15 122.14,26.15 Z M38.94,163.25 C38.88,163.16 39.88,161.82 39.85,161.73 L39.95,161.95 L39.95,161.95 L40.13,162.31 L40.29,162.6 C40.3180699,162.662777 40.3515285,162.723002 40.39,162.78 C40.54,163.06 40.71,163.32 40.89,163.58 L41,163.74 L41,163.74 C41,163.74 39,163.32 38.95,163.26 L38.94,163.25 Z" id="Shape"></path>
                <text id="H" fill="#FFFFFF" transform="translate(24.235000, 71.250000) rotate(-53.591225) translate(-24.235000, -71.250000) " font-family="OpenSans, Open Sans" font-size="31" font-weight="normal">
                    <tspan x="12.8036298" y="83.375324">H</tspan>
                </text>
                <text id="E" fill="#FFFFFF" transform="translate(46.800000, 47.930000) rotate(-38.480198) translate(-46.800000, -47.930000) " font-family="OpenSans, Open Sans" font-size="31" font-weight="normal">
                    <tspan x="37.8324585" y="60.0057366">E</tspan>
                </text>
                <text id="Y" fill="#FFFFFF" transform="translate(71.604012, 32.661054) rotate(-24.810000) translate(-71.604012, -32.661054) " font-family="OpenSans, Open Sans" font-size="31" font-weight="normal">
                    <tspan x="62.6040122" y="44.6610543">Y</tspan>
                </text>
                <text id="," fill="#FFFFFF" transform="translate(94.350000, 24.880000) rotate(-13.339249) translate(-94.350000, -24.880000) " font-family="OpenSans, Open Sans" font-size="31" font-weight="normal">
                    <tspan x="90.3624193" y="36.9452012">,</tspan>
                </text>
                <text id="L" fill="#FFFFFF" transform="translate(137.254824, 22.428207) rotate(6.610000) translate(-137.254824, -22.428207) " font-family="OpenSans, Open Sans" font-size="31" font-weight="normal">
                    <tspan x="128.754824" y="34.4282072">L</tspan>
                </text>
                <text id="E" fill="#FFFFFF" transform="translate(164.954337, 29.101611) rotate(20.090000) translate(-164.954337, -29.101611) " font-family="OpenSans, Open Sans" font-size="31" font-weight="normal">
                    <tspan x="155.954337" y="41.1016115">E</tspan>
                </text>
                <text id="T" fill="#FFFFFF" transform="translate(190.872674, 42.379906) rotate(33.780000) translate(-190.872674, -42.379906) " font-family="OpenSans, Open Sans" font-size="31" font-weight="normal">
                    <tspan x="181.872674" y="54.3799064">T</tspan>
                </text>
                <text id="’" fill="#FFFFFF" transform="translate(208.451638, 56.768997) rotate(44.420000) translate(-208.451638, -56.768997) " font-family="OpenSans, Open Sans" font-size="31" font-weight="normal">
                    <tspan x="205.451638" y="68.7689972">’</tspan>
                </text>
                <text id="S" fill="#FFFFFF" transform="translate(223.161754, 74.247301) rotate(55.030000) translate(-223.161754, -74.247301) " font-family="OpenSans, Open Sans" font-size="31" font-weight="normal">
                    <tspan x="214.161754" y="86.2473009">S</tspan>
                </text>
                <path d="M200.36,125.26 L40.68,170.59 C40.2183032,170.718014 39.7234587,170.629616 39.3346402,170.349666 C38.9458216,170.069717 38.7050346,169.628461 38.68,169.15 C36.8021316,128.871323 62.9063832,92.6023438 101.697193,81.59456 C140.488003,70.5867762 181.751627,87.7385719 201.31,123 C201.533816,123.419547 201.556776,123.917584 201.37251,124.355944 C201.188243,124.794304 200.816349,125.126363 200.36,125.26 L200.36,125.26 Z" id="Shape" fill="#CF8B26" fill-rule="nonzero"></path>
                <path d="M200.36,125.26 L40.68,170.59 C40.2183032,170.718014 39.7234587,170.629616 39.3346402,170.349666 C38.9458216,170.069717 38.7050346,169.628461 38.68,169.15 C36.8021316,128.871323 62.9063832,92.6023438 101.697193,81.59456 C140.488003,70.5867762 181.751627,87.7385719 201.31,123 C201.533816,123.419547 201.556776,123.917584 201.37251,124.355944 C201.188243,124.794304 200.816349,125.126363 200.36,125.26 L200.36,125.26 Z" id="Shape" fill="#BCBEC0" fill-rule="nonzero" opacity="0.5" style="mix-blend-mode: multiply;"></path>
                <path d="M74.09,122.29 C73.8381498,121.972234 73.4853583,121.749975 73.09,121.66 C70.88,121.01 68.82,123.07 66.55,123.39 C65.94,121.73 67.26,119.39 65.55,118.39 C65.0005889,118.076506 64.3387569,118.028707 63.75,118.26 C60.9209965,119.327751 58.6185293,121.454485 57.33,124.19 C56.77,125.39 56.42,126.69 55.77,127.84 C55.6,128.14 55.37,128.46 54.94,128.31 C54.5996515,128.167835 54.3840759,127.828503 54.4,127.46 C54.4,125.64 52.2,125.69 51.08,126.6 C49.945668,127.530339 49.3218667,128.945031 49.4,130.41 C49.5,132.02 50.4,133.41 50.78,135.03 C50.9020589,135.405575 50.8622018,135.815016 50.67,136.16 C50.31,136.66 49.56,136.57 48.95,136.54 C47.2220386,136.3842 45.5963637,137.379926 44.95,138.99 C44.6825044,139.86597 44.8298191,140.81615 45.35,141.57 C46.16,142.76 47.35,142.62 48.35,142.73 C49.0098666,142.738908 49.6364119,143.021397 50.08,143.51 C50.33937,143.908152 50.33937,144.421848 50.08,144.82 C49.7082761,145.322317 49.4397719,145.893313 49.29,146.5 C49.04,147.71 48.89,149.45 49.72,150.5 C49.9105928,150.800452 50.2265812,150.998863 50.58,151.04 C50.9252587,150.990728 51.2338067,150.798339 51.43,150.51 C52.1299677,149.784167 52.686405,148.932547 53.07,148 C53.1810066,148.468978 53.4815509,148.870911 53.9,149.11 C54.8095074,149.48876 55.8429966,149.426012 56.7,148.94 C59.2,147.77 60.78,145.24 61.86,142.71 C62.09,142.16 62.41,141.53 63.05,141.53 C63.3903349,141.538288 63.7030743,141.71915 63.88,142.01 C64.1674276,142.582685 64.2350226,143.240847 64.07,143.86 C65.624303,144.028118 67.1963724,143.829468 68.66,143.28 C69.2110694,143.073265 69.6809225,142.694577 70,142.2 C70.88,140.82 69.59,140.2 69.43,139.14 C69.19,137.69 71.06,136.97 72.1,135.93 C73.3664386,134.553362 73.3223326,132.423041 72,131.1 C71.32,130.47 70.28,129.91 70.4,128.99 C70.4724407,128.660094 70.6272537,128.353909 70.85,128.1 C71.5385103,127.183595 72.2727753,126.302477 73.05,125.46 C73.87,124.57 74.8,123.29 74.09,122.29 Z" id="Shape" fill="#AAB123" fill-rule="nonzero"></path>
                <path d="M43.82,141.44 C43.4247627,141.664752 43.1179016,142.017466 42.95,142.44 C41.95,144.78 43.69,147.44 43.65,149.98 C41.93,150.36 39.9,148.72 38.57,149.98 C37.75,150.74 37.84,152.12 38.13,153.22 C38.8897057,156.08117 40.6089151,158.594675 43,160.34 C44.15,161.17 45.42,161.78 46.51,162.69 C46.7422156,162.846468 46.8981919,163.093128 46.94,163.37 C46.94,164.11 45.94,164 45.23,164.16 C43.94,164.47 43.79,166.48 44.44,167.7 C45.169302,169.084836 46.5352041,170.020385 48.09,170.2 C49.77,170.36 51.41,169.55 53.09,169.44 C53.5003676,169.366991 53.9219264,169.480628 54.24,169.75 C54.7,170.24 54.48,171.05 54.34,171.75 C53.9486418,173.435879 54.517553,175.200272 55.82,176.34 C56.4796849,176.821821 57.3115138,177.004171 58.1122625,176.8425 C58.9130111,176.680829 59.6089303,176.190026 60.03,175.49 C60.3179359,174.817397 60.5227809,174.112192 60.64,173.39 C60.754258,172.670875 61.1500559,172.026804 61.74,171.6 C62.0388386,171.421367 62.4054655,171.397752 62.7247513,171.536572 C63.0440372,171.675392 63.2768198,171.959619 63.35,172.3 L62.62,171.88 C64.0988457,173.819134 66.7875968,174.358597 68.9,173.14 C69.254371,172.970144 69.5146356,172.651229 69.61,172.27 C69.6120875,171.897275 69.4685634,171.538465 69.21,171.27 C68.5522547,170.434258 67.7410832,169.731695 66.82,169.2 C67.3321525,169.145557 67.7972586,168.876668 68.1,168.46 C68.6451083,167.504609 68.7543392,166.361325 68.4,165.32 C67.61,162.32 65.27,160.16 62.83,158.53 C62.35,158.21 61.83,157.81 61.83,157.2 C61.8606444,156.632894 62.272643,156.159095 62.83,156.05 C63.3643774,155.991887 63.9047464,156.07105 64.4,156.28 C64.7835798,154.778079 64.8752388,153.216482 64.67,151.68 C64.49,150.38 63.79,148.85 62.57,148.88 C61.83,148.88 61.19,149.5 60.45,149.51 C58.92,149.51 58.45,147.33 57.59,146 C57.0386563,145.219146 56.1896182,144.700312 55.2432287,144.565925 C54.2968392,144.431537 53.3369279,144.693501 52.59,145.29 C51.83,145.94 51.07,147 50.14,146.71 C49.8041187,146.572404 49.5107926,146.348096 49.29,146.06 C48.4586424,145.136733 47.6743154,144.172177 46.94,143.17 C46.11,142.09 45,140.86 43.82,141.44 Z" id="Shape" fill="#AAB123" fill-rule="nonzero"></path>
                <path d="M49.44,174.19 L49.44,174.19 C49.53,174.24 49.55,174.26 49.44,174.19 L49.44,174.19 Z" id="Shape" fill="#BCBEC0" fill-rule="nonzero" style="mix-blend-mode: multiply;"></path>
                <path d="M49.5,137.53 C49.4702309,136.717663 49.5784314,135.906159 49.82,135.13 C50.34,134.13 51.42,133.61 52.23,132.84 C54.46,130.69 54.23,127.06 55.74,124.35 C57.25,121.64 60.04,120.25 62.93,119.65 C64.0124189,119.371869 65.1475811,119.371869 66.23,119.65 C68.2489361,120.450545 69.5868799,122.388393 69.62,124.56 C69.6031155,126.676472 69.015834,128.74923 67.92,130.56 C67.0883951,131.917245 66.3949288,133.354429 65.85,134.85 C65.36,136.5 65.37,138.25 64.96,139.92 C63.78,144.64 59.46,147.83 55.25,150.27 C55.0466674,150.412362 54.8077891,150.49545 54.56,150.51 C54.08,150.51 53.78,150 53.43,149.66 C52.78,149.06 48,148.39 49.5,137.53 Z" id="Shape" fill="#81281A" fill-rule="nonzero"></path>
                <path d="M52.67,139.45 L53.03,139.73 C53.2667259,139.920034 53.5338041,140.068787 53.82,140.17 L54.04,140.22 L54.26,140.22 C54.3969892,140.216962 54.5323799,140.189884 54.66,140.14 C54.7955155,140.087368 54.9233297,140.016733 55.04,139.93 C54.9839347,140.080302 54.8869479,140.211927 54.76,140.31 C54.6258159,140.418035 54.4683277,140.493356 54.3,140.53 C54.2038469,140.544091 54.1061531,140.544091 54.01,140.53 C53.9083979,140.525038 53.8077195,140.508258 53.71,140.48 C53.3707773,140.363196 53.0792152,140.138377 52.88,139.84 C52.7919211,139.720577 52.7212176,139.589271 52.67,139.45 L52.67,139.45 Z" id="Shape" fill="#BCBEC0" fill-rule="nonzero" style="mix-blend-mode: multiply;"></path>
                <path d="M51.81,144.09 L51.88,144.26 C51.9391145,144.405798 52.0163916,144.543553 52.11,144.67 C52.3632565,145.034419 52.8008871,145.224188 53.24,145.16 C53.3400719,145.123284 53.4499281,145.123284 53.55,145.16 C53.6243915,145.207131 53.6889198,145.268263 53.74,145.34 C53.813072,145.430045 53.8970485,145.510663 53.99,145.58 C54.1523295,145.70442 54.3463899,145.780658 54.55,145.8 C54.6928463,145.815167 54.8332119,145.754468 54.92,145.64 C54.9587032,145.593585 54.9860902,145.538811 55,145.48 C55.0165385,145.542254 55.0165385,145.607746 55,145.67 C54.9354058,145.851828 54.7719484,145.980259 54.58,146 C54.3235904,146.031655 54.0638437,145.979004 53.84,145.85 C53.7131303,145.778504 53.5983771,145.687376 53.5,145.58 L53.4,145.48 L53.32,145.48 C53.0189505,145.533436 52.7087906,145.47283 52.45,145.31 C52.2363614,145.169806 52.0665413,144.97226 51.96,144.74 C51.8525114,144.540744 51.8006953,144.316208 51.81,144.09 L51.81,144.09 Z" id="Shape" fill="#BCBEC0" fill-rule="nonzero" style="mix-blend-mode: multiply;"></path>
                <path d="M52.66,134.85 C52.8799957,134.946568 53.0937452,135.056783 53.3,135.18 C53.7180927,135.451943 54.182399,135.645121 54.67,135.75 C54.9288921,135.783944 55.1911079,135.783944 55.45,135.75 C55.6846183,135.742078 55.918459,135.718694 56.15,135.68 C56.3046836,135.644328 56.4486525,135.572344 56.57,135.47 C56.6173186,135.426322 56.6577742,135.375752 56.69,135.32 C56.6844486,135.387021 56.6639461,135.451946 56.63,135.51 C56.5349258,135.670407 56.3913559,135.796469 56.22,135.87 C55.9850374,135.961982 55.7399913,136.025761 55.49,136.06 C55.1989009,136.111201 54.9010991,136.111201 54.61,136.06 C54.320984,136.0042 54.043648,135.899354 53.79,135.75 C53.5773327,135.617678 53.3765764,135.46711 53.19,135.3 C52.86,135.05 52.66,134.85 52.66,134.85 Z" id="Shape" fill="#BCBEC0" fill-rule="nonzero" style="mix-blend-mode: multiply;"></path>
                <path d="M59.92,166.79 C59.3672833,169.921017 58.3564366,172.953557 56.92,175.79 C55.53,178.55 53.29,182.44 49.03,182.89 C48.43,182.95 47.3,181.96 47.3,181.96 L47.04,181.76 L47.04,181.76 L47.04,181.76 L47.04,181.76 C44.25,180.29 43.04,178.2 41.97,175.19 C41.15,172.84 39.41,170.97 38.97,170.01 C37.41,166.81 43.4,164.01 42.53,160.72 C42.5106512,160.627076 42.5364186,160.530478 42.5994778,160.459536 C42.6625371,160.388594 42.7554487,160.351679 42.85,160.36 L42.85,160.36 C43.1499506,160.38499 43.4390237,160.241599 43.6006178,159.987666 C43.7622118,159.733732 43.7696762,159.411136 43.62,159.15 C43.1588596,158.455814 42.8897407,157.651908 42.84,156.82 C42.8739447,155.970752 43.1709757,155.153044 43.69,154.48 C45.5834395,152.140329 48.5730161,150.976448 51.55,151.42 L52.03,151.5 C55.2684447,152.184233 57.9807536,154.383101 59.32,157.41 C60.444356,160.408285 60.6531797,163.672896 59.92,166.79 L59.92,166.79 Z" id="Shape" fill="#81281A" fill-rule="nonzero"></path>
                <path d="M41.48,168.53 C41.4340628,168.630903 41.4069508,168.739351 41.4,168.85 C41.379318,169.130004 41.4772995,169.405803 41.67,169.61 C41.9330631,169.87793 42.2945656,170.026146 42.67,170.02 C42.890487,170.007973 43.1071312,169.957197 43.31,169.87 C43.5745446,169.771975 43.8654554,169.771975 44.13,169.87 C44.3471912,169.960863 44.5712215,170.034425 44.8,170.09 C45.0166161,170.141035 45.2376283,170.171173 45.46,170.18 C45.8548458,170.206439 46.2493287,170.12339 46.6,169.94 C46.8521698,169.80916 47.060689,169.607591 47.2,169.36 C47.2535269,169.263447 47.2906963,169.158697 47.31,169.05 C47.3334615,169.162119 47.3334615,169.277881 47.31,169.39 C47.2088472,169.688379 47.0119869,169.945001 46.75,170.12 C46.3814788,170.371601 45.946211,170.507405 45.5,170.51 C44.9986864,170.513515 44.501914,170.414841 44.04,170.22 C43.8473738,170.143195 43.6326262,170.143195 43.44,170.22 C43.2037608,170.309692 42.9526643,170.353804 42.7,170.35 C42.2371026,170.335077 41.8047674,170.115245 41.52,169.75 C41.3317297,169.490558 41.2659975,169.161897 41.34,168.85 C41.3618769,168.734122 41.4097435,168.624712 41.48,168.53 L41.48,168.53 Z" id="Shape" fill="#BCBEC0" fill-rule="nonzero" style="mix-blend-mode: multiply;"></path>
                <path d="M44.8,161.92 C45.01416,162.037688 45.2211867,162.167915 45.42,162.31 C45.8289538,162.625805 46.2889222,162.869318 46.78,163.03 C47.0412053,163.100438 47.309624,163.1407 47.58,163.15 C47.85,163.15 48.11,163.15 48.3,163.15 C48.4654564,163.140714 48.6264308,163.092764 48.77,163.01 C48.8269828,162.975449 48.8777004,162.931494 48.92,162.88 C48.902119,162.947368 48.8677528,163.009227 48.82,163.06 C48.6932344,163.203255 48.5257803,163.304425 48.34,163.35 C48.0868599,163.403664 47.8287655,163.430479 47.57,163.43 C47.2671184,163.448272 46.9632658,163.417886 46.67,163.34 C46.3805769,163.250263 46.1071909,163.115257 45.86,162.94 C45.6563749,162.785871 45.4657357,162.615299 45.29,162.43 C45,162.14 44.8,161.92 44.8,161.92 Z" id="Shape" fill="#BCBEC0" fill-rule="nonzero" style="mix-blend-mode: multiply;"></path>
                <path d="M44.76,173.9 L45.37,174.01 C45.790155,174.102187 46.2200317,174.142488 46.65,174.13 C46.8686317,174.118898 47.0843631,174.075077 47.29,174 C47.473567,173.933846 47.6456493,173.839369 47.8,173.72 C47.911233,173.631902 48.011902,173.531233 48.1,173.42 L48.2,173.29 C48.2048254,173.346564 48.2048254,173.403436 48.2,173.46 C48.1523311,173.60896 48.0777661,173.747922 47.98,173.87 C47.836358,174.043224 47.6595672,174.186017 47.46,174.29 C47.228536,174.403756 46.9772547,174.47167 46.72,174.49 C46.251008,174.504305 45.785199,174.408403 45.36,174.21 C45.1509445,174.125225 44.9501035,174.021457 44.76,173.9 L44.76,173.9 Z" id="Shape" fill="#BCBEC0" fill-rule="nonzero" style="mix-blend-mode: multiply;"></path>
                <path d="M44.65,177.56 C44.7461161,177.597069 44.8396564,177.640498 44.93,177.69 C45.1041935,177.791173 45.2845457,177.881349 45.47,177.96 C45.6404026,178.018128 45.8228032,178.031894 46,178 C46.0939725,177.983815 46.1829455,177.946173 46.26,177.89 C46.2437548,178.007788 46.1783448,178.11317 46.08,178.18 C45.979462,178.251348 45.8624923,178.296071 45.74,178.31 C45.6736323,178.318929 45.6063677,178.318929 45.54,178.31 L45.33,178.26 C45.1060742,178.167901 44.9146171,178.011254 44.78,177.81 C44.7278042,177.731583 44.6842188,177.647765 44.65,177.56 Z" id="Shape" fill="#BCBEC0" fill-rule="nonzero" style="mix-blend-mode: multiply;"></path>
                <path d="M133.93,85.29 C132.315249,84.9672043 130.734816,84.4917349 129.21,83.87 C128.861344,83.7399948 128.526385,83.5758645 128.21,83.38 C127.725882,83.2084182 127.227161,83.0812275 126.72,83 C127.1,84.31 128.01,87.6 128.31,88.32 C130.37,88.75 133.08,89.54 134.7,89.87 C134.38,88.47 134.22,86.92 133.93,85.29 Z" id="Shape" fill="#BFB0A9" fill-rule="nonzero"></path>
                <path d="M136.15,80.09 C135.971913,80.9226529 135.696697,81.7315215 135.33,82.5 C134.91,83.33 133.93,85.35 133.93,85.35 C133.93,85.35 134.43,88.49 134.65,89.94 C135.21,89.05 136.85,85.94 136.85,85.94 C136.85,85.94 136.57,82.39 136.15,80.09 Z" id="Shape" fill="#D9C6CA" fill-rule="nonzero"></path>
                <path d="M136,80.09 C135.008993,79.9481086 134.044911,79.6582098 133.14,79.23 C131.976161,78.8013768 130.787293,78.4440483 129.58,78.16 C128.471409,79.687764 127.494566,81.3069152 126.66,83 C129.033797,83.9290246 131.461553,84.7137875 133.93,85.35 C134.955412,83.7277021 135.705528,81.9470204 136.15,80.08 L136,80.09 Z" id="Shape" fill="#DED6ED" fill-rule="nonzero"></path>
                <path d="M92.14,102.68 L90.34,95.37 C90.1327738,94.1573539 89.6579337,93.0061228 88.95,92 C87.54,90.29 85.06,90 82.84,90 C81.8229832,89.960537 80.8070789,90.1027636 79.84,90.42 C78.7528506,90.9189857 77.7691221,91.6177721 76.94,92.48 C74.16,95.03 71.26,97.77 70.26,101.4 C70.1955466,101.814838 70.0153022,102.203056 69.74,102.52 C69.4924702,102.706786 69.2048976,102.833455 68.9,102.89 C67.22,103.34 65.4,103.8 64.28,105.13 C62.53,107.2 63.23,110.33 62.56,112.96 C62.25,114.17 60.46,115.54 60.33,117.28 C60.3530721,117.75672 60.5165943,118.215974 60.8,118.6 C61.1342036,119.263724 61.6466921,119.821229 62.28,120.21 C62.8100532,120.463252 63.3927898,120.586655 63.98,120.57 C67.08,120.57 69.85,118.83 72.7,117.57 C75.32,116.44 78.14,115.73 80.54,114.19 C84.46,111.68 86.87,107.19 90.92,104.9 C91.47,104.58 92.12,104.24 92.26,103.62 C92.2914386,103.301626 92.2504138,102.980265 92.14,102.68 L92.14,102.68 Z" id="Shape" fill="#81281A" fill-rule="nonzero"></path>
                <path d="M59.5,108.55 C61.11,111.15 61.56,113.72 62.5,116.64 C64.8433071,123.989618 67.7347564,131.153058 71.15,138.07 C71.6790081,138.821636 71.8130492,139.782263 71.51,140.65 C71.0048815,141.361776 70.0692123,141.620756 69.27,141.27 C68.5043361,140.908556 67.8637457,140.32715 67.43,139.6 C66.5609497,138.262934 65.827324,136.842581 65.24,135.36 C62.1529723,127.76393 59.5445369,119.982042 57.43,112.06 C57.07951,111.188505 57.0233267,110.226366 57.27,109.32 C57.6,108.44 58.84,107.9 59.5,108.55 Z" id="Shape" fill="#FFC525" fill-rule="nonzero"></path>
                <path d="M67.77,113.21 L67.77,113.21 C67.0234554,113.654804 66.3053935,114.145758 65.62,114.68 L65.62,114.68 L72.22,115.68 C72.6777755,115.225626 73.1085147,114.744801 73.51,114.24 C71.88,113.85 68.09,113.26 67.77,113.21 Z" id="Shape" fill="#B59B84" fill-rule="nonzero"></path>
                <path d="M71.26,121.73 C71.6728099,121.305967 72.0569894,120.854973 72.41,120.38 C72.41,120.38 73.17,115.49 73.41,114.25 C72.9,114.76 72.41,115.19 71.89,115.69 C71.7817876,115.786456 71.6875476,115.897525 71.61,116.02 C71.5513699,116.133912 71.5076761,116.25491 71.48,116.38 C71.25,117.29 72.05,119.12 71.11,119.15 C71.0698536,120.012878 71.1201275,120.877588 71.26,121.73 Z" id="Shape" fill="#B59B84" fill-rule="nonzero"></path>
                <path d="M72.17,115.69 C71.72,117.77 71.6,119.69 71.25,121.69 C69.47,121.54 66.17,120.96 64.81,120.9 C64.7865886,120.897834 64.7653154,120.885479 64.7518325,120.866217 C64.7383495,120.846956 64.7340221,120.822739 64.74,120.8 C65.11,118.72 65.16,116.85 65.58,114.65 L65.58,114.65 L72.17,115.69 Z" id="Shape" fill="#CFC7D4" fill-rule="nonzero"></path>
                <path d="M130.48,86.52 C129.39,83.89 128.16,81.08 125.74,79.59 C123.05,77.94 119.64,78.35 116.52,78.82 C114.353434,79.0466268 112.225568,79.5542219 110.19,80.33 C108.09,81.24 106.26,82.71 104.1,83.49 C101.2,84.49 97.86,84.26 95.18,85.8 C93.3600252,87.0336382 91.8366949,88.6560191 90.72,90.55 L87.9,94.62 L87.9,94.21 C87.54,95.13 87.25,96.35 88.02,96.97 C88.334048,97.1700595 88.669461,97.3344119 89.02,97.46 C90.39,98.12 90.69,99.9 90.91,101.41 C91.24,103.66 92.28,106.32 94.53,106.59 C95.2629391,106.635933 95.9969985,106.519849 96.68,106.25 C99.8440676,105.193161 102.728995,103.436226 105.12,101.11 C107.05,99.23 108.84,96.87 111.49,96.35 C113.57,95.94 115.74,96.79 117.83,96.41 C122.31,95.58 124.38,89.58 128.83,88.72 C129.52,88.59 130.37,88.49 130.63,87.83 C130.74954,87.3902319 130.695853,86.9213642 130.48,86.52 L130.48,86.52 Z" id="Shape" fill="#81281A" fill-rule="nonzero"></path>
                <path d="M108,81.13 L106.66,78 C106.66,78 104.35,78 103.76,78.58 C103.76,78.58 110.58,94.97 116.63,102.58 C117,103.05 119.31,101.14 119.3,100.91 C119.29,99.77 109.61,85 108,81.13 Z" id="Shape" fill="#FFC525" fill-rule="nonzero"></path>
                <path d="M102.45,94.25 C101.786337,89.8800944 103.629024,85.5070938 107.22,82.93 C107.671612,82.5752863 108.204198,82.3381996 108.77,82.24 C111.1,81.98 112.26,85.51 114.58,85.82 C115.85,85.99 117,85.12 118.09,84.45 C120.356669,83.0589807 122.970735,82.3378593 125.63,82.37 C126.045597,82.3346595 126.460239,82.4480657 126.8,82.69 C127.006,82.8965184 127.142349,83.1622239 127.19,83.45 C127.283629,84.5836001 127.12658,85.7239137 126.73,86.79 C126.47,87.9 126.49,89.25 127.38,89.95 C128.084751,90.3155241 128.829804,90.5974361 129.6,90.79 C131.06,91.46 131.6,93.23 131.83,94.79 C132.148467,97.5493419 131.770279,100.344498 130.73,102.92 C130.624846,103.267727 130.411067,103.572626 130.12,103.79 C129.487066,104.032646 128.77019,103.814288 128.38,103.26 C128.012369,102.714989 127.559997,102.232234 127.04,101.83 C126.04,101.25 124.73,101.83 123.75,102.52 C122.77,103.21 121.59,103.89 120.48,103.52 C119.37,103.15 118.74,101.39 117.48,101.06 C116.750485,100.939062 116.002749,101.111616 115.4,101.54 C114.361989,102.241506 113.360672,102.995832 112.4,103.8 C111.438586,104.60377 110.249636,105.086344 109,105.18 C107.711059,105.236359 106.547158,104.413814 106.17,103.18 C106.04,102.57 106.17,101.86 105.72,101.41 C105.229113,101.016316 104.548092,100.960884 104,101.27 C103.46524,101.591178 102.910813,101.878412 102.34,102.13 C101.317688,102.44753 100.211472,102.017777 99.6716379,101.093372 C99.1318041,100.168966 99.3010979,98.9943417 100.08,98.26 C100.686154,97.8027125 101.361279,97.4448963 102.08,97.2 C102.812916,96.9440741 103.366267,96.3342588 103.55,95.58 C103.63,94.82 102.68,94.05 102.09,94.58" id="Shape" fill="#AAB123" fill-rule="nonzero"></path>
                <path d="M174.62,102.77 C173.302892,106.991286 169.729109,110.116898 165.37,110.86 C164.807132,110.981356 164.222912,110.960737 163.67,110.8 C161.46,110 162,106.33 160,105 C158.93,104.29 157.52,104.57 156.24,104.69 C153.593055,104.949191 150.926829,104.453391 148.55,103.26 C148.161542,103.109442 147.839088,102.825966 147.64,102.46 C147.549772,102.180433 147.549772,101.879567 147.64,101.6 C148.053525,100.539975 148.695388,99.5840092 149.52,98.8 C150.24,97.92 150.81,96.7 150.31,95.67 C149.96,94.95 149.19,94.56 148.68,93.94 C147.68,92.7 147.91,90.86 148.44,89.34 C149.370653,86.7321503 150.938116,84.3981422 153,82.55 C153.243635,82.2833297 153.565877,82.101193 153.92,82.03 C154.58,81.97 155.07,82.63 155.26,83.27 C155.351533,83.9236554 155.547355,84.5583898 155.84,85.15 C156.51,86.15 157.93,86.15 159.1,85.97 C160.27,85.79 161.65,85.69 162.46,86.54 C163.27,87.39 163.1,89.22 164.1,90.08 C164.702749,90.5083837 165.450485,90.6809382 166.18,90.56 C167.411621,90.379067 168.633208,90.135417 169.84,89.83 C171.059335,89.5270252 172.343016,89.6144694 173.51,90.08 C174.682929,90.5861922 175.371306,91.8154362 175.19,93.08 C175.04,93.68 174.64,94.27 174.81,94.87 C175.07586,95.4560204 175.678065,95.8149507 176.32,95.77 C176.942721,95.730925 177.567279,95.730925 178.19,95.77 C179.249538,95.9303422 180.057956,96.8011514 180.13923,97.8696671 C180.220504,98.9381828 179.553097,99.921247 178.53,100.24 C177.778643,100.385196 177.008849,100.40883 176.25,100.31 C175.488158,100.231702 174.737606,100.539428 174.25,101.13 C173.84,101.78 174.37,102.88 175.11,102.7" id="Shape" fill="#AAB123" fill-rule="nonzero"></path>
                <path d="M38.91,162.79 L39.27,165.59 C43.2788287,163.454274 47.161871,161.090393 50.9,158.51 C51.9910383,157.78094 52.9972707,156.932351 53.9,155.98 C54.69,155.09 55.32,154.07 56.05,153.12 C56.78,152.17 57.69,151.2 58.44,150.19 C59.7928074,148.349402 60.7309744,146.237674 61.19,144 C60.6853692,143.797648 60.1582611,143.656638 59.62,143.58 C59.4802166,143.534886 59.3297834,143.534886 59.19,143.58 C59.0826685,143.653061 58.9964491,143.753075 58.94,143.87 C56.9144412,147.307288 54.5020718,150.501413 51.75,153.39 C50.4661362,154.761756 49.0750727,156.029096 47.59,157.18 C46.0535668,158.307746 44.4579578,159.35257 42.81,160.31 C41.59,161.05 40.12,161.89 38.91,162.62 L38.91,162.79 Z" id="Shape" fill="#FFC525" fill-rule="nonzero"></path>
                <path d="M166.8,94.08 C165.44,92.08 163.41,90.55 162.02,88.55 C161.686083,87.9914626 161.282885,87.4773859 160.82,87.02 C158.57,85.09 154.19,87.1 152.6,84.6 C152.39,84.27 152.24,83.87 151.9,83.67 C151.586824,83.5272692 151.235238,83.4921106 150.9,83.57 C148.73,83.85 146.59,84.65 144.42,84.38 C143.16,84.22 142,83.3 140.73,83.38 C128.8,84.52 131.29,91.07 132.52,92.74 C133.464445,94.1367088 134.583509,95.4069978 135.85,96.52 C138.73,98.85 142.66,99.37 146.36,99.44 C150.06,99.51 153.85,99.24 157.36,100.31 C158.929143,100.910995 160.527881,101.431669 162.15,101.87 C163.803734,102.301313 165.563926,101.902287 166.87,100.8 C168.66,99.1 168.16,96.1 166.8,94.08 Z" id="Shape" fill="#81281A" fill-rule="nonzero"></path>
                <path d="M188.55,108.66 C186.13,104.35 184.41,107.11 182.55,102.5 C181.44,99.68 179.77,98.06 177.85,97.36 C176.493148,97.0219279 175.112471,96.7879149 173.72,96.66 C172.16,96.39 170.91,95.12 169.35,94.87 C168.304905,94.7804421 167.252958,94.9238894 166.27,95.29 C164.71,95.74 162.96,96.36 162.27,97.85 L162.7,97.51 C162.44489,97.9455969 162.386731,98.4690276 162.54,98.95 L163.08,101.63 C163.388096,103.687498 164.005048,105.686692 164.91,107.56 C166.564908,110.514354 169.544195,112.488132 172.91,112.86 C175.54,113.13 178.2,112.39 180.84,112.66 C182.132897,112.924208 183.45051,113.048259 184.77,113.03 C186.392504,112.816965 187.808077,111.82345 188.56,110.37 C188.701156,110.119 188.78003,109.837796 188.79,109.55 C188.78306,109.238303 188.700711,108.932927 188.55,108.66 Z" id="Shape" fill="#81281A" fill-rule="nonzero"></path>
                <path d="M197.67,124 C197.36,119.06 194.61,120.8 194.98,115.87 C195.2,112.87 194.4,110.66 192.98,109.2 C191.906468,108.307868 190.7665,107.498858 189.57,106.78 C188.28,105.86 187.71,104.18 186.41,103.27 C185.498037,102.715064 184.472532,102.373229 183.41,102.27 C181.81,102 179.97,101.79 178.74,102.85 L179.27,102.73 C178.850273,103.012015 178.570303,103.45924 178.5,103.96 L177.82,106.61 C177.205956,108.598676 176.895791,110.668687 176.9,112.75 C177.104848,116.122249 178.921334,119.18943 181.78,120.99 C184.03,122.38 186.78,122.87 189.01,124.25 C190.061918,125.035598 191.195066,125.7061 192.39,126.25 C193.944268,126.76307 195.651246,126.482931 196.96,125.5 C197.195105,125.334457 197.387131,125.115 197.52,124.86 C197.635028,124.588552 197.68634,124.294361 197.67,124 L197.67,124 Z" id="Shape" fill="#81281A" fill-rule="nonzero"></path>
                <path d="M99.14,97.56 C99.1030445,97.6750009 99.138665,97.8009484 99.2303777,97.8795593 C99.3220905,97.9581703 99.4520041,97.9741091 99.56,97.92 C101.64,97.6 106.56,97.42 106.56,97.42 C106.56,97.42 106.56,96.97 106.56,96.83 L106.21,91 C104.02,91.11 101.45,91.07 99.06,91.25 C98.8,91.23 99.27,95.18 99.14,97.56 Z" id="Shape" fill="#CFC7D4" fill-rule="nonzero"></path>
                <path d="M108.89,91 C107.998329,90.9229245 107.101671,90.9229245 106.21,91 C106.31,92.95 106.43,95.81 106.53,97.45 C107.35,97.4 109.15,97.28 109.18,97.25 C109.21,97.22 109,92.49 108.89,91 Z" id="Shape" fill="#BDAF92" fill-rule="nonzero"></path>
                <path d="M139.43,78.57 C133.421065,86.4353961 125.162411,92.2876011 115.75,95.35 L116.07,95.68 C116.31,96.78 116.89,98.16 118.01,98.1 C118.296212,98.0669859 118.574052,97.9822788 118.83,97.85 C127.772804,93.866773 135.768827,88.0316536 142.29,80.73 C141.529796,79.7847358 140.547171,79.0426134 139.43,78.57 L139.43,78.57 Z" id="Shape" fill="#FFC525" fill-rule="nonzero"></path>
                <path d="M154.49,81.17 C153.913705,81.4859034 153.430828,81.9480863 153.09,82.51 C150.777583,85.4219094 148.214446,88.1255836 145.43,90.59 L137.22,98.3 L137.44,98.24 C137.17,98.86 137.85,99.56 138.53,99.58 C139.212773,99.5197365 139.856322,99.2348869 140.36,98.77 C146.61,94.12 152.44,88.63 156.12,81.77 C155.989519,81.4688974 155.741421,81.2343666 155.433463,81.121008 C155.125506,81.0076495 154.78456,81.025354 154.49,81.17 Z" id="Shape" fill="#FFC525" fill-rule="nonzero"></path>
                <path d="M153.14,99.65 C153.710484,99.3412352 154.351466,99.1861587 155,99.2 C158.720053,98.8377381 162.400952,98.148406 166,97.14 C169.07,96.37 174.61,95.14 176.27,94.68 C177.56,94.34 177.92,96.44 177.44,96.57 C176.65,96.79 161.16,101.81 153.69,101.4 C153.30039,101.351307 152.975329,101.079116 152.85895,100.704119 C152.742572,100.329122 152.856415,99.9207191 153.15,99.66 L153.14,99.65 Z" id="Shape" fill="#FFC525" fill-rule="nonzero"></path>
                <path d="M97.71,108.39 C97.2,106.18 94.31,104.56 94.98,102.39 C95.28,101.39 96.3,100.39 95.78,99.54 C95.4,98.89 94.46,98.88 93.73,99.07 C93.0330155,99.37476 92.2517726,99.4277855 91.52,99.22 C90.37,98.66 90.52,96.93 89.77,95.93 C88.8474643,95.0201171 87.4223724,94.8590198 86.32,95.54 C85.2620813,96.2259539 84.3031598,97.0536546 83.47,98 C82.6261691,98.9533926 81.4228702,99.5115493 80.15,99.54 C79.4712604,99.3641107 78.7707705,99.2866527 78.07,99.31 C77.2259787,99.6193219 76.5773596,100.308711 76.32,101.17 C75.6335816,102.753107 75.2372818,104.446696 75.15,106.17 C75.1755954,106.521478 75.0879855,106.871917 74.9,107.17 C74.3,107.91 73.18,107.09 72.25,106.91 C71.3124114,106.781012 70.3848027,107.205841 69.87,108 C69.397469,108.813576 69.1522515,109.739186 69.16,110.68 C69.034588,113.709697 69.9640975,116.689076 71.79,119.11 L73.54,118.65 L73.73,118.34 C74.1932213,119.193604 75.0253663,119.78482 75.9838677,119.94131 C76.9423692,120.0978 77.9193412,119.80195 78.63,119.14 C79.23,118.5 79.54,117.62 80.24,117.14 C81.78,115.98 83.89,117.27 85.78,117.64 C89.01,118.28 92.06,116.08 94.6,113.98 C96.32,112.51 98.21,110.57 97.71,108.39 Z" id="Shape" fill="#AAB123" fill-rule="nonzero"></path>
                <path d="M95.14,123 C91.6756009,121.681015 88.357757,120.005336 85.24,118 C82.1799803,115.779679 79.4437506,113.144417 77.11,110.17 C73.4634886,105.744466 70.2707918,100.963796 67.58,95.9 C67.36,95.66 71.03,93.63 71.19,93.83 C71.35,94.03 77,101.6 79.65,105 C81.6786927,107.688906 83.8553885,110.262882 86.17,112.71 C87.6417173,114.207207 89.2154926,115.600549 90.88,116.88 C92.2,117.88 93.58,118.88 94.88,119.88 C95.5,120.4 96.16,121.12 95.97,121.88 C95.8502206,122.253221 95.5557125,122.544419 95.1811614,122.659972 C94.8066104,122.775525 94.3992319,122.700866 94.09,122.46" id="Shape" fill="#FFC525" fill-rule="nonzero"></path>
                <path d="M83.05,110 L88.23,88.69 C88.3204988,88.1590478 88.5252156,87.6540797 88.83,87.21 C89.4202785,86.5821392 90.2748087,86.2737652 91.13,86.38 C91.6185898,86.3504043 92.0823876,86.5977631 92.33,87.02 C92.4069873,87.3014977 92.4069873,87.5985023 92.33,87.88 C92.03,89.69 91.56,98.95 90.77,101.65 L88.17,110.58 C88.03,111.06 87.82,111.58 87.33,111.74 C87.0526255,111.779018 86.7698679,111.744536 86.51,111.64 C85.608196,111.489071 84.7389399,111.184663 83.94,110.74 C83.5522197,110.500333 83.2800664,110.11174 83.1873927,109.665393 C83.094719,109.219046 83.1896815,108.75423 83.45,108.38" id="Shape" fill="#FFC525" fill-rule="nonzero"></path>
                <path d="M63.1,135.13 C62.4289329,137.824841 60.4779943,140.018713 57.88,141 C57.0761316,141.250106 56.2415919,141.388075 55.4,141.41 C54.3147007,141.477218 53.2268809,141.327643 52.2,140.97 C49.76,140.05 48.2,137.67 46.86,135.44 C47.03,135.33 47.28,135.17 47.6,134.99 L48.36,134.57 C50.97,133.17 56,130.69 59.98,128.57 L60.98,128.03 L62.65,127.11 C63.5761337,129.68281 63.7325073,132.469735 63.1,135.13 L63.1,135.13 Z" id="Shape" fill="#E63C2F" fill-rule="nonzero"></path>
                <path d="M58.28,138.17 C56.0412838,139.512566 53.1834729,139.206372 51.28,137.42 C50.3533182,136.464585 49.5195672,135.423233 48.79,134.31 L60.79,128.12 C60.79,128.12 62.94,135.64 58.28,138.17 Z" id="Shape" fill="#D1D3D4" fill-rule="nonzero" opacity="0.35" style="mix-blend-mode: overlay;"></path>
                <path d="M52.59,133.86 C52.2503153,134.164776 51.9924556,134.549847 51.84,134.98 C51.7674454,135.157163 51.7432872,135.350428 51.77,135.54 C51.8018958,135.732048 51.9423616,135.888121 52.13,135.94 C52.2745578,135.961664 52.4212395,135.91766 52.53,135.82 C52.6361647,135.721458 52.7212161,135.602386 52.78,135.47 C52.9508615,135.124477 53.0430699,134.745398 53.05,134.36 C53.065576,134.202004 53.0189404,134.044161 52.92,133.92 C52.81,133.81 52.58,133.81 52.52,133.92" id="Shape" fill="#E63C2F" fill-rule="nonzero"></path>
                <path d="M55,135.37 C54.8869817,135.812904 54.8869817,136.277096 55,136.72 C55.0437545,136.90778 55.1369816,137.080423 55.27,137.22 C55.4076148,137.360891 55.615118,137.407873 55.8,137.34 C55.9342006,137.272511 56.0300303,137.147195 56.06,137 C56.0893777,136.858172 56.0893777,136.711828 56.06,136.57 C55.9937977,136.188397 55.8434977,135.826311 55.62,135.51 C55.5407168,135.373631 55.4116893,135.273276 55.26,135.23 C55.1,135.23 54.92,135.34 54.96,135.49" id="Shape" fill="#E63C2F" fill-rule="nonzero"></path>
                <path d="M57.1,134 C57.3530357,134.378723 57.6968075,134.688118 58.1,134.9 C58.2665897,134.998358 58.456541,135.050163 58.65,135.05 C58.8458067,135.046754 59.0216935,134.929496 59.1,134.75 C59.1447879,134.60815 59.1227143,134.453635 59.04,134.33 C58.9583229,134.209808 58.8528048,134.107694 58.73,134.03 C58.4119377,133.813591 58.0499685,133.670169 57.67,133.61 C57.5147485,133.56864 57.3494483,133.590201 57.21,133.67 C57.08,133.76 57.05,133.99 57.21,134.07" id="Shape" fill="#E63C2F" fill-rule="nonzero"></path>
                <path d="M57.94,131.32 C58.3181184,131.577294 58.7548182,131.735468 59.21,131.78 C59.3995715,131.806713 59.5928369,131.782555 59.77,131.71 C59.9353094,131.65384 60.0532165,131.507131 60.0724966,131.333611 C60.0917766,131.16009 60.0089497,130.991077 59.86,130.9 C59.7390247,130.819848 59.60288,130.76539 59.46,130.74 C59.0846424,130.655998 58.6953576,130.655998 58.32,130.74 C58.1616954,130.761337 58.0180763,130.843918 57.92,130.97 C57.84,131.1 57.92,131.33 58.05,131.35" id="Shape" fill="#E63C2F" fill-rule="nonzero"></path>
                <path d="M124.55,85.65 C125.865422,88.0892139 125.90278,91.0180284 124.65,93.49 C124.228451,94.225233 123.706797,94.8983341 123.1,95.49 C122.347399,96.2729666 121.446592,96.8984327 120.45,97.33 C118.03,98.33 115.29,97.59 112.77,96.87 C112.77,96.67 112.9,96.39 113.01,96.04 C113.12,95.69 113.18,95.52 113.29,95.21 C114.29,92.41 116.29,87.21 117.8,82.95 C117.933333,82.5766667 118.06,82.2133333 118.18,81.86 C118.4,81.22 118.61,80.62 118.79,80.05 C121.213428,81.3172211 123.21503,83.2632229 124.55,85.65 L124.55,85.65 Z" id="Shape" fill="#E63C2F" fill-rule="nonzero"></path>
                <path d="M123.06,91.15 C122.324001,93.6662101 120.001427,95.3836063 117.38,95.35 C116.050293,95.27208 114.731016,95.0678263 113.44,94.74 L118.12,82.05 C118.12,82.05 124.78,86.13 123.06,91.15 Z" id="Shape" fill="#D1D3D4" fill-rule="nonzero" opacity="0.35" style="mix-blend-mode: overlay;"></path>
                <path d="M116,91.82 C115.954709,92.273075 116.023462,92.7302828 116.2,93.15 C116.26714,93.329949 116.381054,93.4887379 116.53,93.61 C116.682483,93.7345851 116.893888,93.7580746 117.07,93.67 C117.193885,93.5893314 117.274728,93.4570431 117.29,93.31 C117.302805,93.1647571 117.28579,93.0184295 117.24,92.88 C117.132682,92.5101745 116.944859,92.168678 116.69,91.88 C116.596101,91.7523882 116.456235,91.6663169 116.3,91.64 C116.14,91.64 115.98,91.79 116.03,91.93" id="Shape" fill="#E63C2F" fill-rule="nonzero"></path>
                <path d="M118.79,91.27 C119.015851,91.6791538 119.342958,92.023477 119.74,92.27 C119.900666,92.3772081 120.087143,92.4393671 120.28,92.45 C120.476091,92.460092 120.659938,92.3544777 120.75,92.18 C120.813042,92.0470968 120.813042,91.8929032 120.75,91.76 C120.673405,91.6335834 120.571217,91.5245834 120.45,91.44 C120.154909,91.2101977 119.813875,91.0465013 119.45,90.96 C119.302542,90.8999705 119.137458,90.8999705 118.99,90.96 C118.86,91.05 118.81,91.27 118.99,91.36" id="Shape" fill="#E63C2F" fill-rule="nonzero"></path>
                <path d="M119.36,88.86 C119.802904,88.9730183 120.267096,88.9730183 120.71,88.86 C120.89674,88.8191116 121.069281,88.7293902 121.21,88.6 C121.354421,88.4646394 121.405394,88.2568247 121.34,88.07 C121.274618,87.9381812 121.153458,87.8427225 121.01,87.81 C120.868172,87.7806223 120.721828,87.7806223 120.58,87.81 C120.197366,87.8657195 119.831893,88.0057607 119.51,88.22 C119.369846,88.2973055 119.265692,88.4266003 119.22,88.58 C119.22,88.73 119.32,88.92 119.48,88.89" id="Shape" fill="#E63C2F" fill-rule="nonzero"></path>
                <path d="M118.18,86.33 C118.630223,86.26276 119.056485,86.0840049 119.42,85.81 C119.579446,85.7021966 119.707186,85.553742 119.79,85.38 C119.868279,85.2027559 119.837107,84.9962425 119.71,84.85 C119.601239,84.7523402 119.454558,84.7083356 119.31,84.73 C119.16712,84.7553902 119.030975,84.8098481 118.91,84.89 C118.579284,85.0857253 118.29587,85.3520665 118.08,85.67 C117.977483,85.7926565 117.92721,85.9506548 117.94,86.11 C117.94,86.26 118.16,86.39 118.29,86.3" id="Shape" fill="#E63C2F" fill-rule="nonzero"></path>
                <path d="M65.25,111.34 L65.61,111.62 C65.8467259,111.810034 66.1138041,111.958787 66.4,112.06 L66.62,112.06 L66.84,112.06 C66.9769892,112.056962 67.1123799,112.029884 67.24,111.98 C67.3755155,111.927368 67.5033297,111.856733 67.62,111.77 C67.5655818,111.923944 67.4684636,112.059216 67.34,112.16 C67.2058159,112.268035 67.0483277,112.343356 66.88,112.38 C66.7838469,112.394091 66.6861531,112.394091 66.59,112.38 C66.4883881,112.375129 66.3876992,112.358347 66.29,112.33 C65.9507773,112.213196 65.6592152,111.988377 65.46,111.69 C65.3750682,111.582968 65.3044717,111.465308 65.25,111.34 L65.25,111.34 Z" id="Shape" fill="#BCBEC0" fill-rule="nonzero" style="mix-blend-mode: multiply;"></path>
                <path d="M79.61,94.76 L79.61,94.89 C79.642486,95.0039701 79.686026,95.1144948 79.74,95.22 C79.8864985,95.5090733 80.1540306,95.7179683 80.47,95.79 C80.808632,95.8555887 81.1593931,95.8099897 81.47,95.66 C81.5779494,95.6121909 81.6816537,95.5553208 81.78,95.49 L81.9,95.41 L81.83,95.53 C81.76301,95.6396321 81.6785653,95.737588 81.58,95.82 C81.4357426,95.9409555 81.269312,96.0326622 81.09,96.09 C80.986434,96.1239772 80.8788401,96.1441511 80.77,96.15 C80.6570096,96.1624677 80.5429904,96.1624677 80.43,96.15 C80.3184088,96.1199445 80.210936,96.0762837 80.11,96.02 C80.0121666,95.9650808 79.9242727,95.8940896 79.85,95.81 C79.7776615,95.7346563 79.7200092,95.6464821 79.68,95.55 C79.5610915,95.307882 79.5327154,95.0312147 79.6,94.77 L79.61,94.76 Z" id="Shape" fill="#BCBEC0" fill-rule="nonzero" style="mix-blend-mode: multiply;"></path>
                <path d="M142.09,86.22 C142.140403,86.2826021 142.197398,86.339597 142.26,86.39 C142.371819,86.4733575 142.502233,86.5282688 142.64,86.55 C142.785847,86.5719236 142.934153,86.5719236 143.08,86.55 C143.16126,86.5400912 143.241543,86.5233656 143.32,86.5 C143.295183,86.5904219 143.242741,86.6708333 143.17,86.73 C143.004459,86.8712701 142.783903,86.9300851 142.57,86.89 C142.453028,86.8658401 142.343398,86.8144507 142.25,86.74 C142.172582,86.6728458 142.113992,86.5866838 142.08,86.49 C142.060799,86.4213167 142.060799,86.3486833 142.08,86.28 C142.082182,86.2598251 142.085521,86.2397921 142.09,86.22 Z" id="Shape" fill="#BCBEC0" fill-rule="nonzero" style="mix-blend-mode: multiply;"></path>
                <path d="M67,106.82 C67.0430524,106.888522 67.0933409,106.95222 67.15,107.01 C67.2559295,107.102653 67.3829784,107.167895 67.52,107.2 C67.6658474,107.221924 67.8141526,107.221924 67.96,107.2 C68.0398625,107.206632 68.1201375,107.206632 68.2,107.2 C68.167976,107.289439 68.1084682,107.366449 68.03,107.42 C67.8536647,107.546793 67.6295168,107.587213 67.42,107.53 C67.3082959,107.497067 67.2056543,107.438903 67.12,107.36 C67.0469113,107.284917 66.9951371,107.191723 66.97,107.09 C66.9507994,107.021317 66.9507994,106.948683 66.97,106.88 L67,106.82 Z" id="Shape" fill="#BCBEC0" fill-rule="nonzero" style="mix-blend-mode: multiply;"></path>
                <path d="M94.93,88.7 L95,88.87 C95.0593049,89.015706 95.1365691,89.1534379 95.23,89.28 C95.4832565,89.6444193 95.9208871,89.8341883 96.36,89.77 C96.4600719,89.733284 96.5699281,89.733284 96.67,89.77 C96.7443915,89.8171308 96.8089198,89.8782629 96.86,89.95 C96.9329952,90.0401158 97.0169811,90.1207422 97.11,90.19 C97.2723295,90.31442 97.4663899,90.390658 97.67,90.41 C97.8128463,90.4251666 97.9532119,90.364468 98.04,90.25 C98.0787032,90.2035854 98.1060902,90.1488113 98.12,90.09 C98.1365385,90.1522536 98.1365385,90.2177464 98.12,90.28 C98.0554058,90.4618282 97.8919484,90.590259 97.7,90.61 C97.443619,90.6409264 97.1841011,90.5883214 96.96,90.46 C96.8331303,90.3885035 96.7183771,90.297376 96.62,90.19 L96.52,90.09 L96.44,90.09 C96.1389505,90.1434359 95.8287906,90.0828299 95.57,89.92 C95.3563614,89.779806 95.1865413,89.5822601 95.08,89.35 C94.9725114,89.1507443 94.9206953,88.926208 94.93,88.7 L94.93,88.7 Z" id="Shape" fill="#BCBEC0" fill-rule="nonzero" style="mix-blend-mode: multiply;"></path>
                <path d="M56.89,126.24 C57.1099734,126.336615 57.3237199,126.446828 57.53,126.57 C57.9480927,126.841943 58.412399,127.035121 58.9,127.14 C59.1588921,127.173944 59.4211079,127.173944 59.68,127.14 C59.9146261,127.132195 60.1484744,127.10881 60.38,127.07 C60.5346836,127.034328 60.6786525,126.962344 60.8,126.86 C60.8474324,126.816428 60.8879027,126.76584 60.92,126.71 C60.9144486,126.777021 60.8939461,126.841946 60.86,126.9 C60.7649258,127.060407 60.6213559,127.186469 60.45,127.26 C60.2150374,127.351982 59.9699913,127.415761 59.72,127.45 C59.4288832,127.500997 59.1311168,127.500997 58.84,127.45 C58.550984,127.3942 58.273648,127.289354 58.02,127.14 C57.8073612,127.007636 57.6066084,126.857071 57.42,126.69 C57.09,126.44 56.89,126.24 56.89,126.24 Z" id="Shape" fill="#BCBEC0" fill-rule="nonzero" style="mix-blend-mode: multiply;"></path>
                <path d="M43.91,150.83 C38.98,158.66 49.7,165.73 49.7,165.73 L59.86,151 C59.86,151 49.57,141.84 43.91,150.83 Z" id="Shape" fill="#E2231A" fill-rule="nonzero"></path>
                <path d="M45.59,158.81 C44.9469323,156.115107 45.6641516,153.276114 47.51,151.21 C48.1042586,150.617323 48.7772355,150.109225 49.51,149.7 C50.4288364,149.143433 51.4481917,148.773067 52.51,148.61 C55.1,148.29 57.57,149.69 59.81,151.04 C59.71,151.22 59.56,151.47 59.36,151.78 C59.16,152.09 59.06,152.24 58.88,152.51 C57.21,154.96 53.88,159.51 51.36,163.2 L50.71,164.2 C50.34,164.76 49.98,165.29 49.66,165.79 C47.6496165,163.911666 46.2345061,161.484769 45.59,158.81 L45.59,158.81 Z" id="Shape" fill="#E63C2F" fill-rule="nonzero"></path>
                <path d="M48.46,153.87 C49.8178603,151.626539 52.5046398,150.563278 55.03,151.27 C56.2950001,151.689626 57.51718,152.228724 58.68,152.88 L50.89,163.94 C50.89,163.94 45.5,158.28 48.46,153.87 Z" id="Shape" fill="#D1D3D4" fill-rule="nonzero" opacity="0.35" style="mix-blend-mode: overlay;"></path>
                <path d="M55.5,155.06 C55.6612548,154.632901 55.7128278,154.172183 55.65,153.72 C55.6316787,153.528685 55.562637,153.345724 55.45,153.19 C55.3323782,153.031589 55.1325975,152.957161 54.94,153 C54.7996474,153.04928 54.6892796,153.159647 54.64,153.3 C54.5905458,153.437658 54.5701174,153.584062 54.58,153.73 C54.5900407,154.116162 54.6856741,154.49528 54.86,154.84 C54.9195541,154.987519 55.0343826,155.105936 55.18,155.17 C55.33,155.17 55.53,155.11 55.51,154.95" id="Shape" fill="#E63C2F" fill-rule="nonzero"></path>
                <path d="M52.62,154.86 C52.4979979,154.420118 52.2676397,154.01785 51.95,153.69 C51.8247285,153.543267 51.6624371,153.432771 51.48,153.37 C51.2941945,153.311365 51.091251,153.366004 50.96,153.51 C50.8738798,153.632017 50.8481079,153.786648 50.89,153.93 C50.9300427,154.068985 50.9981058,154.198305 51.09,154.31 C51.3386785,154.604356 51.6494502,154.839996 52,155 C52.1339637,155.083978 52.2953007,155.11266 52.45,155.08 C52.6,155.08 52.7,154.83 52.59,154.71" id="Shape" fill="#E63C2F" fill-rule="nonzero"></path>
                <path d="M51.44,157 C51.0378753,156.78199 50.5874172,156.668516 50.13,156.67 C49.9392821,156.660676 49.7495017,156.702083 49.58,156.79 C49.4093979,156.882865 49.308017,157.066131 49.32,157.26 C49.3477586,157.405251 49.4396307,157.530198 49.57,157.6 C49.7002591,157.668455 49.8432379,157.709306 49.99,157.72 C50.3741973,157.764972 50.7635875,157.723984 51.13,157.6 C51.2837235,157.561479 51.4164217,157.464646 51.5,157.33 C51.57,157.19 51.5,156.97 51.33,156.97" id="Shape" fill="#E63C2F" fill-rule="nonzero"></path>
                <path d="M51.93,159.79 C51.4753063,159.736695 51.0145086,159.798593 50.59,159.97 C50.4075629,160.032771 50.2452715,160.143267 50.12,160.29 C49.9954149,160.442483 49.9719254,160.653888 50.06,160.83 C50.1406686,160.953885 50.2729569,161.034728 50.42,161.05 C50.561828,161.079378 50.708172,161.079378 50.85,161.05 C51.2189517,160.945639 51.5603781,160.761268 51.85,160.51 C51.9813744,160.417931 52.0711918,160.277816 52.1,160.12 C52.1,159.96 51.96,159.79 51.81,159.85" id="Shape" fill="#E63C2F" fill-rule="nonzero"></path>
                <path d="M84.48,103 C86.01,112.13 98.71,110.27 98.71,110.27 L96.52,92.6 C96.52,92.6 82.72,92.56 84.48,103 Z" id="Shape" fill="#E2231A" fill-rule="nonzero"></path>
                <path d="M91,107.89 C88.713884,106.295465 87.3598651,103.677196 87.38,100.89 C87.4328576,100.050923 87.6011073,99.2231348 87.88,98.43 C88.2008897,97.3940052 88.7243502,96.4320617 89.42,95.6 C91.15,93.6 93.91,93.04 96.49,92.6 C96.49,92.8 96.59,93.09 96.65,93.45 C96.71,93.81 96.73,93.99 96.78,94.31 C97.17,97.25 97.71,102.83 98.27,107.31 C98.3166667,107.703333 98.3666667,108.086667 98.42,108.46 C98.51,109.13 98.6,109.76 98.69,110.35 C95.9413861,110.29887 93.2679629,109.443653 91,107.89 L91,107.89 Z" id="Shape" fill="#E63C2F" fill-rule="nonzero"></path>
                <path d="M89.89,102.3 C89.4178536,99.7245775 90.7175635,97.1496806 93.07,96 C94.2914926,95.4708017 95.5605371,95.0589483 96.86,94.77 L98.4,108.21 C98.4,108.21 90.62,107.56 89.89,102.3 Z" id="Shape" fill="#D1D3D4" fill-rule="nonzero" opacity="0.35" style="mix-blend-mode: overlay;"></path>
                <path d="M95.94,98.5 C95.7760725,98.0738784 95.5078915,97.6956744 95.16,97.4 C95.0204226,97.2669816 94.8477799,97.1737545 94.66,97.13 C94.470619,97.0913695 94.2759343,97.1653497 94.16,97.32 C94.0969585,97.4529032 94.0969585,97.6070968 94.16,97.74 C94.2146505,97.8750912 94.2963199,97.9975952 94.4,98.1 C94.6653688,98.3810476 94.989849,98.5996448 95.35,98.74 C95.497458,98.8000295 95.662542,98.8000295 95.81,98.74 C95.95,98.68 96.03,98.46 95.92,98.36" id="Shape" fill="#E63C2F" fill-rule="nonzero"></path>
                <path d="M93.66,100.27 C93.2760712,100.021746 92.835942,99.8738897 92.38,99.84 C92.189541,99.8164384 91.9962434,99.8440523 91.82,99.92 C91.6405038,99.9983065 91.523246,100.174193 91.52,100.37 C91.5352722,100.517043 91.616115,100.649331 91.74,100.73 C91.864778,100.807907 92.0044057,100.858991 92.15,100.88 C92.5253576,100.964002 92.9146424,100.964002 93.29,100.88 C93.4462347,100.853683 93.5861007,100.767612 93.68,100.64 C93.76,100.5 93.68,100.28 93.54,100.27" id="Shape" fill="#E63C2F" fill-rule="nonzero"></path>
                <path d="M94.23,102.68 C93.7843819,102.782889 93.3717529,102.996081 93.03,103.3 C92.8810539,103.421262 92.7671401,103.580051 92.7,103.76 C92.6321272,103.944882 92.6791091,104.152385 92.82,104.29 C92.9362471,104.379983 93.0867521,104.413021 93.23,104.38 C93.3716098,104.343961 93.5043374,104.279299 93.62,104.19 C93.9365144,103.967262 94.1995304,103.67692 94.39,103.34 C94.4809095,103.208854 94.516809,103.047306 94.49,102.89 C94.49,102.74 94.25,102.63 94.12,102.73" id="Shape" fill="#E63C2F" fill-rule="nonzero"></path>
                <path d="M96.42,104.4 C96.0485962,104.655558 95.7462633,104.999118 95.54,105.4 C95.4451357,105.567574 95.3968001,105.757464 95.4,105.95 C95.4088421,106.144517 95.529806,106.316208 95.71,106.39 C95.8548646,106.429039 96.0096305,106.39956 96.13,106.31 C96.2474112,106.224152 96.3460874,106.115268 96.42,105.99 C96.6271785,105.66639 96.7603484,105.301026 96.81,104.92 C96.8426601,104.765301 96.8139779,104.603964 96.73,104.47 C96.63,104.35 96.41,104.32 96.33,104.47" id="Shape" fill="#E63C2F" fill-rule="nonzero"></path>
                <path d="M158.93,100 C164.37,92.52 154.15,84.75 154.15,84.75 L143,98.77 C143,98.77 152.68,108.64 158.93,100 Z" id="Shape" fill="#E2231A" fill-rule="nonzero"></path>
                <path d="M157.79,92 C158.250835,94.7297037 157.346997,97.5121827 155.37,99.45 C154.736183,100.000868 154.02955,100.461862 153.27,100.82 C152.305141,101.315735 151.251414,101.614858 150.17,101.7 C147.56,101.84 145.17,100.28 143.05,98.79 C143.16,98.62 143.33,98.38 143.55,98.08 C143.77,97.78 143.88,97.64 144.08,97.39 C145.91,95.05 149.51,90.76 152.3,87.23 L153.02,86.32 C153.43,85.79 153.82,85.32 154.18,84.81 C156.057991,86.8038694 157.312701,89.3028624 157.79,92 L157.79,92 Z" id="Shape" fill="#E63C2F" fill-rule="nonzero"></path>
                <path d="M154.6,96.7 C153.093703,98.8462355 150.341614,99.725432 147.87,98.85 C146.633901,98.3472085 145.448541,97.7277405 144.33,97 L152.84,86.49 C152.84,86.49 157.85,92.5 154.6,96.7 Z" id="Shape" fill="#D1D3D4" fill-rule="nonzero" opacity="0.35" style="mix-blend-mode: overlay;"></path>
                <path d="M147.66,95 C147.469794,95.4162116 147.387266,95.8735587 147.42,96.33 C147.424635,96.520983 147.479846,96.7073191 147.58,96.87 C147.684123,97.0360937 147.875702,97.1260182 148.07,97.1 C148.211684,97.0623965 148.32909,96.9633349 148.39,96.83 C148.448081,96.6975226 148.478698,96.5546442 148.48,96.41 C148.497991,96.0231603 148.429673,95.6371648 148.28,95.28 C148.2204,95.1581271 148.121873,95.0596001 148,95 C147.85,94.94 147.65,95 147.65,95.19" id="Shape" fill="#E63C2F" fill-rule="nonzero"></path>
                <path d="M150.51,95.44 C150.602581,95.8862591 150.805414,96.3022388 151.1,96.65 C151.215945,96.8048649 151.37136,96.925743 151.55,97 C151.732955,97.070401 151.940172,97.0273935 152.08,96.89 C152.173494,96.775425 152.210243,96.6247546 152.18,96.48 C152.148545,96.3355751 152.087233,96.199325 152,96.08 C151.785268,95.7584358 151.50177,95.4886003 151.17,95.29 C151.0403,95.1955871 150.878629,95.1560674 150.72,95.18 C150.57,95.18 150.45,95.42 150.55,95.54" id="Shape" fill="#E63C2F" fill-rule="nonzero"></path>
                <path d="M151.84,93.34 C152.224883,93.5847262 152.664948,93.7291223 153.12,93.76 C153.310459,93.7835616 153.503757,93.7559477 153.68,93.68 C153.858885,93.5972308 153.972452,93.4170905 153.97,93.22 C153.952433,93.0711371 153.867695,92.9385036 153.74,92.86 C153.615222,92.7820926 153.475594,92.7310093 153.33,92.71 C152.954642,92.6259976 152.565358,92.6259976 152.19,92.71 C152.033765,92.7363169 151.893899,92.8223882 151.8,92.95 C151.72,93.09 151.8,93.31 151.94,93.32" id="Shape" fill="#E63C2F" fill-rule="nonzero"></path>
                <path d="M151.53,90.57 C151.980423,90.6537525 152.444681,90.622802 152.88,90.48 C153.066333,90.4289041 153.235548,90.3287569 153.37,90.19 C153.50393,90.0479984 153.542978,89.8410409 153.47,89.66 C153.397958,89.5334544 153.273364,89.4455062 153.13,89.42 C152.988172,89.3906223 152.841828,89.3906223 152.7,89.42 C152.336944,89.5035044 151.995971,89.6637618 151.7,89.89 C151.565354,89.9735783 151.468521,90.1062765 151.43,90.26 C151.43,90.42 151.55,90.6 151.7,90.55" id="Shape" fill="#E63C2F" fill-rule="nonzero"></path>
                <path d="M210.77,137.63 L51.09,183 C50.6283032,183.128014 50.1334587,183.039616 49.7446402,182.759666 C49.3558216,182.479717 49.1150346,182.038461 49.09,181.56 C47.201777,141.277322 73.3028013,104.998839 112.096668,93.9854169 C150.890534,82.9719949 192.16031,100.12418 211.72,135.39 C211.936271,135.80777 211.955133,136.300183 211.771456,136.733274 C211.58778,137.166365 211.220669,137.495084 210.77,137.63 Z" id="Shape" fill="#CF8B26" fill-rule="nonzero"></path>
                <circle id="Oval" fill="#D1D3D4" fill-rule="nonzero" style="mix-blend-mode: multiply;" transform="translate(151.692523, 115.765198) rotate(-4.300000) translate(-151.692523, -115.765198) " cx="151.692523" cy="115.765198" r="1.24"></circle>
                <circle id="Oval" fill="#D1D3D4" fill-rule="nonzero" style="mix-blend-mode: multiply;" transform="translate(164.628121, 127.781860) rotate(-4.300000) translate(-164.628121, -127.781860) " cx="164.628121" cy="127.78186" r="1"></circle>
                <circle id="Oval" fill="#D1D3D4" fill-rule="nonzero" style="mix-blend-mode: multiply;" transform="translate(140.572664, 133.767572) rotate(-4.300000) translate(-140.572664, -133.767572) " cx="140.572664" cy="133.767572" r="1"></circle>
                <circle id="Oval" fill="#D1D3D4" fill-rule="nonzero" style="mix-blend-mode: multiply;" transform="translate(185.136214, 134.683930) rotate(-4.300000) translate(-185.136214, -134.683930) " cx="185.136214" cy="134.68393" r="1"></circle>
                <circle id="Oval" fill="#D1D3D4" fill-rule="nonzero" opacity="0.25" style="mix-blend-mode: overlay;" transform="translate(160.570209, 142.484201) rotate(-4.300000) translate(-160.570209, -142.484201) " cx="160.570209" cy="142.484201" r="1.24"></circle>
                <circle id="Oval" fill="#D1D3D4" fill-rule="nonzero" opacity="0.25" style="mix-blend-mode: overlay;" transform="translate(178.349416, 118.727933) rotate(-4.300000) translate(-178.349416, -118.727933) " cx="178.349416" cy="118.727933" r="1"></circle>
                <circle id="Oval" fill="#D1D3D4" fill-rule="nonzero" opacity="0.25" style="mix-blend-mode: overlay;" transform="translate(148.804537, 97.942047) rotate(-4.300000) translate(-148.804537, -97.942047) " cx="148.804537" cy="97.942047" r="1"></circle>
                <circle id="Oval" fill="#D1D3D4" fill-rule="nonzero" opacity="0.25" style="mix-blend-mode: overlay;" transform="translate(122.070645, 104.228551) rotate(-4.300000) translate(-122.070645, -104.228551) " cx="122.070645" cy="104.228551" r="1.24"></circle>
                <circle id="Oval" fill="#D1D3D4" fill-rule="nonzero" opacity="0.25" style="mix-blend-mode: overlay;" transform="translate(129.568199, 119.951961) rotate(-4.300000) translate(-129.568199, -119.951961) " cx="129.568199" cy="119.951961" r="1"></circle>
                <circle id="Oval" fill="#D1D3D4" fill-rule="nonzero" style="mix-blend-mode: multiply;" transform="translate(131.551595, 146.200334) rotate(-4.300000) translate(-131.551595, -146.200334) " cx="131.551595" cy="146.200334" r="1.24"></circle>
                <circle id="Oval" fill="#D1D3D4" fill-rule="nonzero" style="mix-blend-mode: multiply;" transform="translate(84.475854, 133.824431) rotate(-4.300000) translate(-84.475854, -133.824431) " cx="84.4758545" cy="133.824431" r="1.24"></circle>
                <circle id="Oval" fill="#D1D3D4" fill-rule="nonzero" style="mix-blend-mode: multiply;" transform="translate(97.961100, 143.574100) rotate(-4.004173) translate(-97.961100, -143.574100) " cx="97.9611" cy="143.5741" r="1"></circle>
                <circle id="Oval" fill="#D1D3D4" fill-rule="nonzero" style="mix-blend-mode: multiply;" transform="translate(106.501600, 118.696800) rotate(-4.004173) translate(-106.501600, -118.696800) " cx="106.5016" cy="118.6968" r="1"></circle>
                <circle id="Oval" fill="#D1D3D4" fill-rule="nonzero" style="mix-blend-mode: multiply;" transform="translate(85.524540, 160.874118) rotate(-4.290000) translate(-85.524540, -160.874118) " cx="85.5245401" cy="160.874118" r="1"></circle>
                <circle id="Oval" fill="#D1D3D4" fill-rule="nonzero" style="mix-blend-mode: multiply;" transform="translate(72.349775, 156.091236) rotate(-4.300000) translate(-72.349775, -156.091236) " cx="72.3497751" cy="156.091236" r="1"></circle>
                <circle id="Oval" fill="#D1D3D4" fill-rule="nonzero" opacity="0.25" style="mix-blend-mode: overlay;" transform="translate(64.679345, 145.266808) rotate(-4.300000) translate(-64.679345, -145.266808) " cx="64.6793455" cy="145.266808" r="1.24"></circle>
                <circle id="Oval" fill="#D1D3D4" fill-rule="nonzero" opacity="0.25" style="mix-blend-mode: overlay;" transform="translate(61.147741, 169.392838) rotate(-4.300000) translate(-61.147741, -169.392838) " cx="61.1477407" cy="169.392838" r="1"></circle>
                <circle id="Oval" fill="#D1D3D4" fill-rule="nonzero" opacity="0.25" style="mix-blend-mode: overlay;" transform="translate(88.415961, 111.008407) rotate(-4.290000) translate(-88.415961, -111.008407) " cx="88.4159614" cy="111.008407" r="1"></circle>
                <circle id="Oval" fill="#D1D3D4" fill-rule="nonzero" opacity="0.25" style="mix-blend-mode: overlay;" transform="translate(108.407967, 158.620381) rotate(-4.300000) translate(-108.407967, -158.620381) " cx="108.407967" cy="158.620381" r="1"></circle>
                <circle id="Oval" fill="#D1D3D4" fill-rule="nonzero" opacity="0.25" style="mix-blend-mode: overlay;" transform="translate(119.115357, 133.388407) rotate(-4.300000) translate(-119.115357, -133.388407) " cx="119.115357" cy="133.388407" r="1"></circle>
                <path d="M167.06,96.47 C149.990982,91.085658 131.714505,90.8456814 114.51,95.78 C76.95,106.44 51.61,138.78 49.03,174.63 C49.9482811,146.531287 64.4171392,120.617032 87.855508,105.092092 C111.293877,89.5671525 140.799337,86.3540115 167.03,96.47 L167.06,96.47 Z" id="Shape" fill="#D1D3D4" fill-rule="nonzero" opacity="0.25" style="mix-blend-mode: overlay;"></path>
                <text id="BOUT-IT" fill="#FFFFFF" font-family="ChunkFive" font-size="40" font-weight="normal">
                    <tspan x="38" y="284">BOUT IT</tspan>
                </text>
            </g>
        </g>
    </g>
</svg>